{
	"asset":{
		"generator":"Khronos glTF Blender I/O v5.2.40",
		"version":"2.0"
	},
	"scene":0,
	"scenes":[
		{
			"name":"Scene",
			"nodes":[
				56
			]
		}
	],
	"nodes":[
		{
			"mesh":0,
			"name":"AilerL",
			"translation":[
				-2.2699999809265137,
				0.3500000238418579,
				2.7300000190734863
			]
		},
		{
			"name":"AilerL1",
			"translation":[
				-2.2699999809265137,
				0.3500000238418579,
				2.7300000190734863
			]
		},
		{
			"name":"AilerL2",
			"translation":[
				-3.2699999809265137,
				0.3500000238418579,
				2.7300000190734863
			]
		},
		{
			"mesh":1,
			"name":"AilerR",
			"translation":[
				2.2699999809265137,
				0.3500000238418579,
				2.7300000190734863
			]
		},
		{
			"name":"AilerR1",
			"translation":[
				2.2699999809265137,
				0.3500000238418579,
				2.7300000190734863
			]
		},
		{
			"name":"AilerR2",
			"translation":[
				3.2699999809265137,
				0.3500000238418579,
				2.7300000190734863
			]
		},
		{
			"mesh":2,
			"name":"BayLi",
			"translation":[
				-0.3499999940395355,
				-0.73713219165802,
				0.3999999761581421
			]
		},
		{
			"name":"BayLi1",
			"translation":[
				-0.3499999940395355,
				-0.73713219165802,
				0.3999999761581421
			]
		},
		{
			"name":"BayLi2",
			"translation":[
				-0.3499999940395355,
				-0.73713219165802,
				1.4000000953674316
			]
		},
		{
			"mesh":3,
			"name":"BayLo",
			"translation":[
				-1.350000023841858,
				-0.5205625295639038,
				0.3999999761581421
			]
		},
		{
			"name":"BayLo1",
			"translation":[
				-1.350000023841858,
				-0.5205625295639038,
				-0.050000011920928955
			]
		},
		{
			"name":"BayLo2",
			"translation":[
				-1.350000023841858,
				-0.5205625295639038,
				-1.0499999523162842
			]
		},
		{
			"mesh":4,
			"name":"BayRi",
			"translation":[
				0.3499999940395355,
				-0.73713219165802,
				0.3999999761581421
			]
		},
		{
			"name":"BayRi1",
			"translation":[
				0.3499999940395355,
				-0.73713219165802,
				-0.050000011920928955
			]
		},
		{
			"name":"BayRi2",
			"translation":[
				0.3499999940395355,
				-0.73713219165802,
				-1.0499999523162842
			]
		},
		{
			"mesh":5,
			"name":"BayRo",
			"translation":[
				1.350000023841858,
				-0.5205627679824829,
				0.3999999761581421
			]
		},
		{
			"name":"BayRo1",
			"translation":[
				1.350000023841858,
				-0.5205627679824829,
				0.3999999761581421
			]
		},
		{
			"name":"BayRo2",
			"translation":[
				1.350000023841858,
				-0.5205627679824829,
				1.4000000953674316
			]
		},
		{
			"name":"Camera",
			"translation":[
				0,
				1.149999976158142,
				-5.099999904632568
			]
		},
		{
			"mesh":6,
			"name":"canopy",
			"translation":[
				0,
				0.7817548513412476,
				-5.542285919189453
			]
		},
		{
			"mesh":7,
			"name":"ElevaL",
			"translation":[
				-1.100000023841858,
				0.41999995708465576,
				5.300000190734863
			]
		},
		{
			"name":"ElevaL1",
			"translation":[
				-1.100000023841858,
				0.41999995708465576,
				5.300000190734863
			]
		},
		{
			"name":"ElevaL2",
			"translation":[
				-2.0999999046325684,
				0.41999995708465576,
				5.300000190734863
			]
		},
		{
			"mesh":8,
			"name":"ElevaR",
			"translation":[
				1.100000023841858,
				0.41999995708465576,
				5.300000190734863
			]
		},
		{
			"name":"ElevaR1",
			"translation":[
				1.100000023841858,
				0.41999995708465576,
				5.300000190734863
			]
		},
		{
			"name":"ElevaR2",
			"translation":[
				2.0999999046325684,
				0.41999995708465576,
				5.300000190734863
			]
		},
		{
			"name":"EngineL",
			"translation":[
				0,
				0.09000003337860107,
				5.239999771118164
			]
		},
		{
			"name":"EngineL1",
			"translation":[
				0,
				0.6399999856948853,
				5.239999771118164
			]
		},
		{
			"name":"height",
			"translation":[
				0,
				-1.850000023841858,
				0
			]
		},
		{
			"mesh":9,
			"name":"LdgDr",
			"translation":[
				0.03648102283477783,
				-0.39841389656066895,
				1.2607955932617188
			]
		},
		{
			"mesh":10,
			"name":"LdgF",
			"translation":[
				0,
				-0.7000000476837158,
				-5.550000190734863
			]
		},
		{
			"name":"LdgF1",
			"translation":[
				-0.05000000074505806,
				-0.7000000476837158,
				-5.550000190734863
			]
		},
		{
			"name":"LdgF2",
			"translation":[
				-1.0499999523162842,
				-0.7000000476837158,
				-5.550000190734863
			]
		},
		{
			"mesh":11,
			"name":"LdgL",
			"translation":[
				-2.049999952316284,
				0.10000002384185791,
				1.1600000858306885
			]
		},
		{
			"name":"LdgL1",
			"translation":[
				0.04999995231628418,
				0.10000002384185791,
				1.1600000858306885
			]
		},
		{
			"name":"LdgL2",
			"translation":[
				1.0499999523162842,
				0.10000002384185791,
				1.1600000858306885
			]
		},
		{
			"mesh":12,
			"name":"LdgR",
			"translation":[
				2.049999952316284,
				0.10000002384185791,
				1.1600000858306885
			]
		},
		{
			"name":"LdgR1",
			"translation":[
				-0.04999995231628418,
				0.10000002384185791,
				1.1600000858306885
			]
		},
		{
			"name":"LdgR2",
			"translation":[
				-1.0499999523162842,
				0.10000002384185791,
				1.1600000858306885
			]
		},
		{
			"mesh":13,
			"name":"pilot",
			"translation":[
				0,
				0.9275001287460327,
				-5.054999828338623
			]
		},
		{
			"mesh":14,
			"name":"Rudde",
			"translation":[
				1.5199999809265137,
				0.5500000715255737,
				4.550000190734863
			]
		},
		{
			"name":"Rudde1",
			"translation":[
				1.5199999809265137,
				0.5500000715255737,
				4.550000190734863
			]
		},
		{
			"name":"Rudde2",
			"translation":[
				1.8243930339813232,
				1.3643501996994019,
				5.044144630432129
			]
		},
		{
			"mesh":15,
			"name":"RuddeL",
			"translation":[
				-1.5199999809265137,
				0.5500000715255737,
				4.550000190734863
			]
		},
		{
			"name":"RuddeL1",
			"translation":[
				-1.5199999809265137,
				0.5500000715255737,
				4.550000190734863
			]
		},
		{
			"name":"RuddeL2",
			"translation":[
				-1.8243930339813232,
				1.3643501996994019,
				5.044144630432129
			]
		},
		{
			"name":"StationA",
			"translation":[
				-5.199999809265137,
				0.19999992847442627,
				1.9000000953674316
			]
		},
		{
			"name":"StationB",
			"translation":[
				-2.9000000953674316,
				0.1499999761581421,
				0.8999999761581421
			]
		},
		{
			"name":"StationC",
			"translation":[
				-1,
				-0.3500000238418579,
				-1.75
			]
		},
		{
			"name":"StationD",
			"translation":[
				-0.550000011920929,
				-0.30000007152557373,
				-1.75
			]
		},
		{
			"name":"StationE",
			"translation":[
				0,
				-0.8500000238418579,
				-1.75
			]
		},
		{
			"name":"StationF",
			"translation":[
				0.550000011920929,
				-0.30000007152557373,
				-1.75
			]
		},
		{
			"name":"StationG",
			"translation":[
				1,
				-0.3500000238418579,
				-1.75
			]
		},
		{
			"name":"StationGun",
			"translation":[
				-0.75,
				0.6000000238418579,
				-2.5
			]
		},
		{
			"name":"StationH",
			"translation":[
				2.9000000953674316,
				0.1499999761581421,
				0.8999999761581421
			]
		},
		{
			"name":"StationI",
			"translation":[
				5.199999809265137,
				0.19999992847442627,
				1.9000000953674316
			]
		},
		{
			"children":[
				0,
				1,
				2,
				3,
				4,
				5,
				6,
				7,
				8,
				9,
				10,
				11,
				12,
				13,
				14,
				15,
				16,
				17,
				18,
				19,
				20,
				21,
				22,
				23,
				24,
				25,
				26,
				27,
				28,
				29,
				30,
				31,
				32,
				33,
				34,
				35,
				36,
				37,
				38,
				39,
				40,
				41,
				42,
				43,
				44,
				45,
				46,
				47,
				48,
				49,
				50,
				51,
				52,
				53,
				54,
				55
			],
			"mesh":16,
			"name":"f35i"
		}
	],
	"materials":[
		{
			"doubleSided":true,
			"name":"skin_38",
			"pbrMetallicRoughness":{
				"baseColorTexture":{
					"index":0
				},
				"metallicFactor":0.15000000596046448,
				"roughnessFactor":0.550000011920929
			}
		},
		{
			"doubleSided":true,
			"name":"skin_40",
			"pbrMetallicRoughness":{
				"baseColorTexture":{
					"index":1
				},
				"metallicFactor":0.15000000596046448,
				"roughnessFactor":0.550000011920929
			}
		},
		{
			"doubleSided":true,
			"name":"skin_42",
			"pbrMetallicRoughness":{
				"baseColorTexture":{
					"index":2
				},
				"metallicFactor":0.15000000596046448,
				"roughnessFactor":0.550000011920929
			}
		},
		{
			"doubleSided":true,
			"name":"skin_29",
			"pbrMetallicRoughness":{
				"baseColorTexture":{
					"index":3
				},
				"metallicFactor":0.15000000596046448,
				"roughnessFactor":0.550000011920929
			}
		},
		{
			"doubleSided":true,
			"name":"skin_30",
			"pbrMetallicRoughness":{
				"baseColorTexture":{
					"index":4
				},
				"metallicFactor":0.15000000596046448,
				"roughnessFactor":0.550000011920929
			}
		},
		{
			"alphaMode":"BLEND",
			"doubleSided":true,
			"name":"canopy_glass",
			"pbrMetallicRoughness":{
				"baseColorFactor":[
					0.3499999940395355,
					0.30000001192092896,
					0.18000000715255737,
					0.4000000059604645
				],
				"metallicFactor":0,
				"roughnessFactor":0.10000000149011612
			}
		},
		{
			"doubleSided":true,
			"name":"skin_41",
			"pbrMetallicRoughness":{
				"baseColorTexture":{
					"index":5
				},
				"metallicFactor":0.15000000596046448,
				"roughnessFactor":0.550000011920929
			}
		},
		{
			"doubleSided":true,
			"name":"Material.001",
			"pbrMetallicRoughness":{
				"baseColorFactor":[
					0.1259640008211136,
					0.1259640008211136,
					0.1259640008211136,
					1
				],
				"metallicFactor":0,
				"roughnessFactor":0.5
			}
		},
		{
			"alphaMode":"BLEND",
			"doubleSided":true,
			"name":"Whitish_grey",
			"pbrMetallicRoughness":{
				"baseColorFactor":[
					0.19028566777706146,
					0.1835474967956543,
					0.14812298119068146,
					0.47999998927116394
				],
				"metallicFactor":0.1935238093137741,
				"roughnessFactor":0
			}
		},
		{
			"doubleSided":true,
			"name":"metal",
			"pbrMetallicRoughness":{
				"baseColorFactor":[
					0.08176250010728836,
					0.08176250010728836,
					0.08176250010728836,
					1
				]
			}
		},
		{
			"doubleSided":true,
			"name":"Material.008",
			"pbrMetallicRoughness":{
				"baseColorFactor":[
					0.800000011920929,
					0.800000011920929,
					0.800000011920929,
					1
				],
				"metallicFactor":0,
				"roughnessFactor":0.5
			}
		},
		{
			"doubleSided":true,
			"name":"skin_45",
			"pbrMetallicRoughness":{
				"baseColorTexture":{
					"index":6
				},
				"metallicFactor":0.15000000596046448,
				"roughnessFactor":0.550000011920929
			}
		},
		{
			"doubleSided":true,
			"name":"Rubber.001",
			"pbrMetallicRoughness":{
				"baseColorFactor":[
					0,
					0,
					0,
					1
				],
				"metallicFactor":0
			}
		},
		{
			"doubleSided":true,
			"name":"helmet",
			"pbrMetallicRoughness":{
				"baseColorFactor":[
					0.6200000047683716,
					0.6299999952316284,
					0.6200000047683716,
					1
				],
				"metallicFactor":0,
				"roughnessFactor":0.3499999940395355
			}
		},
		{
			"doubleSided":true,
			"name":"pilot",
			"pbrMetallicRoughness":{
				"baseColorFactor":[
					0.33000001311302185,
					0.3499999940395355,
					0.2800000011920929,
					1
				],
				"metallicFactor":0,
				"roughnessFactor":0.5
			}
		},
		{
			"doubleSided":true,
			"name":"skin_48",
			"pbrMetallicRoughness":{
				"baseColorTexture":{
					"index":7
				},
				"metallicFactor":0.15000000596046448,
				"roughnessFactor":0.550000011920929
			}
		},
		{
			"doubleSided":true,
			"name":"skin_49",
			"pbrMetallicRoughness":{
				"baseColorTexture":{
					"index":8
				},
				"metallicFactor":0.15000000596046448,
				"roughnessFactor":0.550000011920929
			}
		},
		{
			"doubleSided":true,
			"emissiveFactor":[
				1,
				0,
				0.0009445209871046245
			],
			"name":"Red_light_strong",
			"pbrMetallicRoughness":{
				"baseColorFactor":[
					0.800000011920929,
					0.800000011920929,
					0.800000011920929,
					1
				],
				"metallicFactor":0,
				"roughnessFactor":0.5
			}
		},
		{
			"doubleSided":true,
			"emissiveFactor":[
				0.03820360079407692,
				1,
				0.03820459917187691
			],
			"name":"Green_light_strong",
			"pbrMetallicRoughness":{
				"baseColorFactor":[
					0.800000011920929,
					0.800000011920929,
					0.800000011920929,
					1
				],
				"metallicFactor":0,
				"roughnessFactor":0.5
			}
		},
		{
			"doubleSided":true,
			"name":"skin_plain",
			"pbrMetallicRoughness":{
				"baseColorFactor":[
					0.31450000405311584,
					0.33149999380111694,
					0.34850001335144043,
					1
				],
				"metallicFactor":0.15000000596046448,
				"roughnessFactor":0.550000011920929
			}
		},
		{
			"doubleSided":true,
			"name":"Material.021",
			"pbrMetallicRoughness":{
				"baseColorFactor":[
					0.1887589991092682,
					0.19891700148582458,
					0.19321200251579285,
					1
				],
				"metallicFactor":0.8333330154418945,
				"roughnessFactor":0.6860470175743103
			}
		},
		{
			"doubleSided":true,
			"name":"Glass"
		},
		{
			"doubleSided":true,
			"name":"skin_36",
			"pbrMetallicRoughness":{
				"baseColorTexture":{
					"index":9
				},
				"metallicFactor":0.15000000596046448,
				"roughnessFactor":0.550000011920929
			}
		},
		{
			"doubleSided":true,
			"name":"skin_37",
			"pbrMetallicRoughness":{
				"baseColorTexture":{
					"index":10
				},
				"metallicFactor":0.15000000596046448,
				"roughnessFactor":0.550000011920929
			}
		},
		{
			"doubleSided":true,
			"name":"skin_43",
			"pbrMetallicRoughness":{
				"baseColorTexture":{
					"index":11
				},
				"metallicFactor":0.15000000596046448,
				"roughnessFactor":0.550000011920929
			}
		},
		{
			"doubleSided":true,
			"name":"nozzle_metal",
			"pbrMetallicRoughness":{
				"baseColorFactor":[
					0.10000000149011612,
					0.10000000149011612,
					0.10999999940395355,
					1
				],
				"metallicFactor":0.8500000238418579,
				"roughnessFactor":0.3499999940395355
			}
		},
		{
			"doubleSided":true,
			"emissiveFactor":[
				0.02465829998254776,
				1,
				0
			],
			"name":"Glowing_green",
			"pbrMetallicRoughness":{
				"baseColorFactor":[
					0.800000011920929,
					0.800000011920929,
					0.800000011920929,
					1
				],
				"metallicFactor":0,
				"roughnessFactor":0.5
			}
		},
		{
			"doubleSided":true,
			"emissiveFactor":[
				0,
				1,
				0.009615739807486534
			],
			"name":"Grey",
			"pbrMetallicRoughness":{
				"baseColorFactor":[
					0.13599899411201477,
					0.13836100697517395,
					0.15743599832057953,
					1
				],
				"metallicFactor":0,
				"roughnessFactor":0.5
			}
		},
		{
			"alphaMode":"BLEND",
			"doubleSided":true,
			"name":"iaf_roundel",
			"pbrMetallicRoughness":{
				"baseColorTexture":{
					"index":12
				},
				"metallicFactor":0.15000000596046448,
				"roughnessFactor":0.75
			}
		},
		{
			"doubleSided":true,
			"name":"tail_number",
			"pbrMetallicRoughness":{
				"baseColorFactor":[
					0.1599999964237213,
					0.17000000178813934,
					0.18000000715255737,
					1
				],
				"metallicFactor":0.15000000596046448,
				"roughnessFactor":0.75
			}
		},
		{
			"alphaMode":"BLEND",
			"doubleSided":true,
			"name":"sqn116",
			"pbrMetallicRoughness":{
				"baseColorTexture":{
					"index":13
				},
				"metallicFactor":0.15000000596046448,
				"roughnessFactor":0.75
			}
		},
		{
			"doubleSided":true,
			"name":"bay_inside",
			"pbrMetallicRoughness":{
				"baseColorFactor":[
					0.30000001192092896,
					0.3100000023841858,
					0.3199999928474426,
					1
				],
				"metallicFactor":0,
				"roughnessFactor":0.800000011920929
			}
		}
	],
	"meshes":[
		{
			"name":"AilerL",
			"primitives":[
				{
					"attributes":{
						"POSITION":0,
						"NORMAL":1,
						"TEXCOORD_0":2
					},
					"indices":3,
					"material":0
				},
				{
					"attributes":{
						"POSITION":4,
						"NORMAL":5,
						"TEXCOORD_0":6
					},
					"indices":7,
					"material":1
				},
				{
					"attributes":{
						"POSITION":8,
						"NORMAL":9,
						"TEXCOORD_0":10
					},
					"indices":11,
					"material":2
				},
				{
					"attributes":{
						"POSITION":12,
						"NORMAL":13,
						"TEXCOORD_0":14
					},
					"indices":15,
					"material":3
				},
				{
					"attributes":{
						"POSITION":16,
						"NORMAL":17,
						"TEXCOORD_0":18
					},
					"indices":19,
					"material":4
				}
			]
		},
		{
			"name":"AilerR",
			"primitives":[
				{
					"attributes":{
						"POSITION":20,
						"NORMAL":21,
						"TEXCOORD_0":22
					},
					"indices":23,
					"material":0
				},
				{
					"attributes":{
						"POSITION":24,
						"NORMAL":25,
						"TEXCOORD_0":26
					},
					"indices":27,
					"material":1
				},
				{
					"attributes":{
						"POSITION":28,
						"NORMAL":29,
						"TEXCOORD_0":30
					},
					"indices":31,
					"material":2
				},
				{
					"attributes":{
						"POSITION":32,
						"NORMAL":33,
						"TEXCOORD_0":34
					},
					"indices":35,
					"material":3
				},
				{
					"attributes":{
						"POSITION":36,
						"NORMAL":37,
						"TEXCOORD_0":38
					},
					"indices":39,
					"material":4
				}
			]
		},
		{
			"name":"BayLi",
			"primitives":[
				{
					"attributes":{
						"POSITION":40,
						"NORMAL":41,
						"TEXCOORD_0":42
					},
					"indices":43,
					"material":2
				}
			]
		},
		{
			"name":"BayLo",
			"primitives":[
				{
					"attributes":{
						"POSITION":44,
						"NORMAL":45,
						"TEXCOORD_0":46
					},
					"indices":47,
					"material":2
				}
			]
		},
		{
			"name":"BayRi",
			"primitives":[
				{
					"attributes":{
						"POSITION":48,
						"NORMAL":49,
						"TEXCOORD_0":50
					},
					"indices":51,
					"material":2
				}
			]
		},
		{
			"name":"BayRo",
			"primitives":[
				{
					"attributes":{
						"POSITION":52,
						"NORMAL":53,
						"TEXCOORD_0":54
					},
					"indices":55,
					"material":2
				}
			]
		},
		{
			"name":"canopy",
			"primitives":[
				{
					"attributes":{
						"POSITION":56,
						"NORMAL":57,
						"TEXCOORD_0":58
					},
					"indices":59,
					"material":5
				}
			]
		},
		{
			"name":"ElevaL",
			"primitives":[
				{
					"attributes":{
						"POSITION":60,
						"NORMAL":61,
						"TEXCOORD_0":62
					},
					"indices":63,
					"material":0
				},
				{
					"attributes":{
						"POSITION":64,
						"NORMAL":65,
						"TEXCOORD_0":66
					},
					"indices":67,
					"material":1
				},
				{
					"attributes":{
						"POSITION":68,
						"NORMAL":69,
						"TEXCOORD_0":70
					},
					"indices":71,
					"material":2
				},
				{
					"attributes":{
						"POSITION":72,
						"NORMAL":73,
						"TEXCOORD_0":74
					},
					"indices":75,
					"material":6
				}
			]
		},
		{
			"name":"ElevaR",
			"primitives":[
				{
					"attributes":{
						"POSITION":76,
						"NORMAL":77,
						"TEXCOORD_0":78
					},
					"indices":79,
					"material":0
				},
				{
					"attributes":{
						"POSITION":80,
						"NORMAL":81,
						"TEXCOORD_0":82
					},
					"indices":83,
					"material":1
				},
				{
					"attributes":{
						"POSITION":84,
						"NORMAL":85,
						"TEXCOORD_0":86
					},
					"indices":87,
					"material":2
				},
				{
					"attributes":{
						"POSITION":88,
						"NORMAL":89,
						"TEXCOORD_0":90
					},
					"indices":91,
					"material":6
				}
			]
		},
		{
			"name":"LdgDr",
			"primitives":[
				{
					"attributes":{
						"POSITION":92,
						"NORMAL":93,
						"TEXCOORD_0":94
					},
					"indices":95,
					"material":7
				}
			]
		},
		{
			"name":"LdgF",
			"primitives":[
				{
					"attributes":{
						"POSITION":96,
						"NORMAL":97,
						"TEXCOORD_0":98
					},
					"indices":99,
					"material":8
				},
				{
					"attributes":{
						"POSITION":100,
						"NORMAL":101,
						"TEXCOORD_0":102
					},
					"indices":103,
					"material":9
				},
				{
					"attributes":{
						"POSITION":104,
						"NORMAL":105,
						"TEXCOORD_0":106
					},
					"indices":107,
					"material":10
				},
				{
					"attributes":{
						"POSITION":108,
						"NORMAL":109,
						"TEXCOORD_0":110
					},
					"indices":111,
					"material":11
				}
			]
		},
		{
			"name":"LdgL",
			"primitives":[
				{
					"attributes":{
						"POSITION":112,
						"NORMAL":113,
						"TEXCOORD_0":114
					},
					"indices":115,
					"material":9
				},
				{
					"attributes":{
						"POSITION":116,
						"NORMAL":117,
						"TEXCOORD_0":118
					},
					"indices":119,
					"material":8
				},
				{
					"attributes":{
						"POSITION":120,
						"NORMAL":121,
						"TEXCOORD_0":122
					},
					"indices":123,
					"material":12
				}
			]
		},
		{
			"name":"LdgR",
			"primitives":[
				{
					"attributes":{
						"POSITION":124,
						"NORMAL":125,
						"TEXCOORD_0":126
					},
					"indices":127,
					"material":8
				},
				{
					"attributes":{
						"POSITION":128,
						"NORMAL":129,
						"TEXCOORD_0":130
					},
					"indices":131,
					"material":12
				},
				{
					"attributes":{
						"POSITION":132,
						"NORMAL":133,
						"TEXCOORD_0":134
					},
					"indices":135,
					"material":9
				}
			]
		},
		{
			"name":"pilot",
			"primitives":[
				{
					"attributes":{
						"POSITION":136,
						"NORMAL":137,
						"TEXCOORD_0":138
					},
					"indices":139,
					"material":13
				},
				{
					"attributes":{
						"POSITION":140,
						"NORMAL":141,
						"TEXCOORD_0":142
					},
					"indices":143,
					"material":14
				}
			]
		},
		{
			"name":"Rudde",
			"primitives":[
				{
					"attributes":{
						"POSITION":144,
						"NORMAL":145,
						"TEXCOORD_0":146
					},
					"indices":147,
					"material":15
				},
				{
					"attributes":{
						"POSITION":148,
						"NORMAL":149,
						"TEXCOORD_0":150
					},
					"indices":151,
					"material":16
				}
			]
		},
		{
			"name":"RuddeL",
			"primitives":[
				{
					"attributes":{
						"POSITION":152,
						"NORMAL":153,
						"TEXCOORD_0":154
					},
					"indices":155,
					"material":15
				},
				{
					"attributes":{
						"POSITION":156,
						"NORMAL":157,
						"TEXCOORD_0":158
					},
					"indices":159,
					"material":16
				}
			]
		},
		{
			"name":"f35i",
			"primitives":[
				{
					"attributes":{
						"POSITION":160,
						"NORMAL":161,
						"TEXCOORD_0":162
					},
					"indices":163,
					"material":17
				},
				{
					"attributes":{
						"POSITION":164,
						"NORMAL":165,
						"TEXCOORD_0":166
					},
					"indices":163,
					"material":18
				},
				{
					"attributes":{
						"POSITION":167,
						"NORMAL":168,
						"TEXCOORD_0":169
					},
					"indices":170,
					"material":9
				},
				{
					"attributes":{
						"POSITION":171,
						"NORMAL":172,
						"TEXCOORD_0":173
					},
					"indices":174,
					"material":19
				},
				{
					"attributes":{
						"POSITION":175,
						"NORMAL":176,
						"TEXCOORD_0":177
					},
					"indices":178,
					"material":20
				},
				{
					"attributes":{
						"POSITION":179,
						"NORMAL":180,
						"TEXCOORD_0":181
					},
					"indices":182,
					"material":3
				},
				{
					"attributes":{
						"POSITION":183,
						"NORMAL":184,
						"TEXCOORD_0":185
					},
					"indices":186,
					"material":4
				},
				{
					"attributes":{
						"POSITION":187,
						"NORMAL":188,
						"TEXCOORD_0":189
					},
					"indices":190,
					"material":21
				},
				{
					"attributes":{
						"POSITION":191,
						"NORMAL":192,
						"TEXCOORD_0":193
					},
					"indices":194,
					"material":22
				},
				{
					"attributes":{
						"POSITION":195,
						"NORMAL":196,
						"TEXCOORD_0":197
					},
					"indices":198,
					"material":23
				},
				{
					"attributes":{
						"POSITION":199,
						"NORMAL":200,
						"TEXCOORD_0":201
					},
					"indices":202,
					"material":0
				},
				{
					"attributes":{
						"POSITION":203,
						"NORMAL":204,
						"TEXCOORD_0":205
					},
					"indices":206,
					"material":1
				},
				{
					"attributes":{
						"POSITION":207,
						"NORMAL":208,
						"TEXCOORD_0":209
					},
					"indices":210,
					"material":6
				},
				{
					"attributes":{
						"POSITION":211,
						"NORMAL":212,
						"TEXCOORD_0":213
					},
					"indices":214,
					"material":2
				},
				{
					"attributes":{
						"POSITION":215,
						"NORMAL":216,
						"TEXCOORD_0":217
					},
					"indices":218,
					"material":24
				},
				{
					"attributes":{
						"POSITION":219,
						"NORMAL":220,
						"TEXCOORD_0":221
					},
					"indices":222,
					"material":11
				},
				{
					"attributes":{
						"POSITION":223,
						"NORMAL":224,
						"TEXCOORD_0":225
					},
					"indices":226,
					"material":15
				},
				{
					"attributes":{
						"POSITION":227,
						"NORMAL":228,
						"TEXCOORD_0":229
					},
					"indices":230,
					"material":16
				},
				{
					"attributes":{
						"POSITION":231,
						"NORMAL":232,
						"TEXCOORD_0":233
					},
					"indices":234,
					"material":25
				},
				{
					"attributes":{
						"POSITION":235,
						"NORMAL":236,
						"TEXCOORD_0":237
					},
					"indices":238,
					"material":26
				},
				{
					"attributes":{
						"POSITION":239,
						"NORMAL":240,
						"TEXCOORD_0":241
					},
					"indices":242,
					"material":27
				},
				{
					"attributes":{
						"POSITION":243,
						"NORMAL":244,
						"TEXCOORD_0":245
					},
					"indices":246,
					"material":8
				},
				{
					"attributes":{
						"POSITION":247,
						"NORMAL":248,
						"TEXCOORD_0":249
					},
					"indices":250,
					"material":28
				},
				{
					"attributes":{
						"POSITION":251,
						"NORMAL":252,
						"TEXCOORD_0":253
					},
					"indices":254,
					"material":29
				},
				{
					"attributes":{
						"POSITION":255,
						"NORMAL":256,
						"TEXCOORD_0":257
					},
					"indices":258,
					"material":30
				},
				{
					"attributes":{
						"POSITION":259,
						"NORMAL":260,
						"TEXCOORD_0":261
					},
					"indices":262,
					"material":31
				}
			]
		}
	],
	"textures":[
		{
			"sampler":0,
			"source":0
		},
		{
			"sampler":0,
			"source":1
		},
		{
			"sampler":0,
			"source":2
		},
		{
			"sampler":0,
			"source":3
		},
		{
			"sampler":0,
			"source":4
		},
		{
			"sampler":0,
			"source":5
		},
		{
			"sampler":0,
			"source":6
		},
		{
			"sampler":0,
			"source":7
		},
		{
			"sampler":0,
			"source":8
		},
		{
			"sampler":0,
			"source":9
		},
		{
			"sampler":0,
			"source":10
		},
		{
			"sampler":0,
			"source":11
		},
		{
			"sampler":0,
			"source":12
		},
		{
			"sampler":0,
			"source":13
		}
	],
	"images":[
		{
			"mimeType":"image/png",
			"name":"skin_38",
			"uri":"textures/skin_38.png"
		},
		{
			"mimeType":"image/png",
			"name":"skin_40",
			"uri":"textures/skin_40.png"
		},
		{
			"mimeType":"image/png",
			"name":"skin_42",
			"uri":"textures/skin_42.png"
		},
		{
			"mimeType":"image/png",
			"name":"skin_29",
			"uri":"textures/skin_29.png"
		},
		{
			"mimeType":"image/png",
			"name":"skin_30",
			"uri":"textures/skin_30.png"
		},
		{
			"mimeType":"image/png",
			"name":"skin_41",
			"uri":"textures/skin_41.png"
		},
		{
			"mimeType":"image/png",
			"name":"skin_45",
			"uri":"textures/skin_45.png"
		},
		{
			"mimeType":"image/png",
			"name":"skin_48",
			"uri":"textures/skin_48.png"
		},
		{
			"mimeType":"image/png",
			"name":"skin_49",
			"uri":"textures/skin_49.png"
		},
		{
			"mimeType":"image/png",
			"name":"skin_36",
			"uri":"textures/skin_36.png"
		},
		{
			"mimeType":"image/png",
			"name":"skin_37",
			"uri":"textures/skin_37.png"
		},
		{
			"mimeType":"image/png",
			"name":"skin_43",
			"uri":"textures/skin_43.png"
		},
		{
			"mimeType":"image/png",
			"name":"iaf_roundel",
			"uri":"textures/iaf_roundel.png"
		},
		{
			"mimeType":"image/png",
			"name":"sqn116_lowvis",
			"uri":"textures/sqn116_lowvis.png"
		}
	],
	"accessors":[
		{
			"bufferView":0,
			"componentType":5126,
			"count":10,
			"max":[
				0.008736371994018555,
				0.12061071395874023,
				0.7902383804321289
			],
			"min":[
				-2.1100001335144043,
				0.06225299835205078,
				0
			],
			"type":"VEC3"
		},
		{
			"bufferView":1,
			"componentType":5126,
			"count":10,
			"type":"VEC3"
		},
		{
			"bufferView":2,
			"componentType":5126,
			"count":10,
			"type":"VEC2"
		},
		{
			"bufferView":3,
			"componentType":5123,
			"count":18,
			"type":"SCALAR"
		},
		{
			"bufferView":4,
			"componentType":5126,
			"count":7,
			"max":[
				0.013100624084472656,
				0.12061071395874023,
				0.7902383804321289
			],
			"min":[
				0.0017740726470947266,
				-0.04763960838317871,
				0
			],
			"type":"VEC3"
		},
		{
			"bufferView":5,
			"componentType":5126,
			"count":7,
			"type":"VEC3"
		},
		{
			"bufferView":6,
			"componentType":5126,
			"count":7,
			"type":"VEC2"
		},
		{
			"bufferView":7,
			"componentType":5123,
			"count":15,
			"type":"SCALAR"
		},
		{
			"bufferView":8,
			"componentType":5126,
			"count":18,
			"max":[
				0.013100624084472656,
				0.08094048500061035,
				0.7902383804321289
			],
			"min":[
				-2.1100001335144043,
				-0.04844164848327637,
				0
			],
			"type":"VEC3"
		},
		{
			"bufferView":9,
			"componentType":5126,
			"count":18,
			"type":"VEC3"
		},
		{
			"bufferView":10,
			"componentType":5126,
			"count":18,
			"type":"VEC2"
		},
		{
			"bufferView":11,
			"componentType":5123,
			"count":42,
			"type":"SCALAR"
		},
		{
			"bufferView":12,
			"componentType":5126,
			"count":10,
			"max":[
				0.15812468528747559,
				-0.039299726486206055,
				0.7978744506835938
			],
			"min":[
				-0.3089325428009033,
				-0.043459415435791016,
				0
			],
			"type":"VEC3"
		},
		{
			"bufferView":13,
			"componentType":5126,
			"count":10,
			"type":"VEC3"
		},
		{
			"bufferView":14,
			"componentType":5126,
			"count":10,
			"type":"VEC2"
		},
		{
			"bufferView":15,
			"componentType":5123,
			"count":27,
			"type":"SCALAR"
		},
		{
			"bufferView":16,
			"componentType":5126,
			"count":18,
			"max":[
				0.10492849349975586,
				-0.039299726486206055,
				0.7978744506835938
			],
			"min":[
				-0.3089325428009033,
				-0.25110042095184326,
				0
			],
			"type":"VEC3"
		},
		{
			"bufferView":17,
			"componentType":5126,
			"count":18,
			"type":"VEC3"
		},
		{
			"bufferView":18,
			"componentType":5126,
			"count":18,
			"type":"VEC2"
		},
		{
			"bufferView":19,
			"componentType":5123,
			"count":48,
			"type":"SCALAR"
		},
		{
			"bufferView":20,
			"componentType":5126,
			"count":9,
			"max":[
				2.1100001335144043,
				0.12061071395874023,
				0.7902388572692871
			],
			"min":[
				-0.008736848831176758,
				0.06225299835205078,
				0
			],
			"type":"VEC3"
		},
		{
			"bufferView":21,
			"componentType":5126,
			"count":9,
			"type":"VEC3"
		},
		{
			"bufferView":22,
			"componentType":5126,
			"count":9,
			"type":"VEC2"
		},
		{
			"bufferView":23,
			"componentType":5123,
			"count":21,
			"type":"SCALAR"
		},
		{
			"bufferView":24,
			"componentType":5126,
			"count":7,
			"max":[
				-0.0017745494842529297,
				0.12061071395874023,
				0.7902388572692871
			],
			"min":[
				-0.01310110092163086,
				-0.04763960838317871,
				0
			],
			"type":"VEC3"
		},
		{
			"bufferView":25,
			"componentType":5126,
			"count":7,
			"type":"VEC3"
		},
		{
			"bufferView":26,
			"componentType":5126,
			"count":7,
			"type":"VEC2"
		},
		{
			"bufferView":27,
			"componentType":5123,
			"count":15,
			"type":"SCALAR"
		},
		{
			"bufferView":28,
			"componentType":5126,
			"count":18,
			"max":[
				2.1100001335144043,
				0.08094048500061035,
				0.7902388572692871
			],
			"min":[
				-0.01310110092163086,
				-0.04844164848327637,
				0
			],
			"type":"VEC3"
		},
		{
			"bufferView":29,
			"componentType":5126,
			"count":18,
			"type":"VEC3"
		},
		{
			"bufferView":30,
			"componentType":5126,
			"count":18,
			"type":"VEC2"
		},
		{
			"bufferView":31,
			"componentType":5123,
			"count":42,
			"type":"SCALAR"
		},
		{
			"bufferView":32,
			"componentType":5126,
			"count":10,
			"max":[
				0.3089320659637451,
				-0.039299726486206055,
				0.7978744506835938
			],
			"min":[
				-0.1581251621246338,
				-0.043459415435791016,
				0
			],
			"type":"VEC3"
		},
		{
			"bufferView":33,
			"componentType":5126,
			"count":10,
			"type":"VEC3"
		},
		{
			"bufferView":34,
			"componentType":5126,
			"count":10,
			"type":"VEC2"
		},
		{
			"bufferView":35,
			"componentType":5123,
			"count":27,
			"type":"SCALAR"
		},
		{
			"bufferView":36,
			"componentType":5126,
			"count":27,
			"max":[
				0.3089320659637451,
				-0.039299726486206055,
				0.7978744506835938
			],
			"min":[
				-0.10492897033691406,
				-0.25110042095184326,
				0
			],
			"type":"VEC3"
		},
		{
			"bufferView":37,
			"componentType":5126,
			"count":27,
			"type":"VEC3"
		},
		{
			"bufferView":38,
			"componentType":5126,
			"count":27,
			"type":"VEC2"
		},
		{
			"bufferView":39,
			"componentType":5123,
			"count":48,
			"type":"SCALAR"
		},
		{
			"bufferView":40,
			"componentType":5126,
			"count":157,
			"max":[
				0,
				0.5044345855712891,
				1.1920928955078125e-07
			],
			"min":[
				-0.5,
				-0.03827095031738281,
				-4.300000190734863
			],
			"type":"VEC3"
		},
		{
			"bufferView":41,
			"componentType":5126,
			"count":157,
			"type":"VEC3"
		},
		{
			"bufferView":42,
			"componentType":5126,
			"count":157,
			"type":"VEC2"
		},
		{
			"bufferView":43,
			"componentType":5123,
			"count":438,
			"type":"SCALAR"
		},
		{
			"bufferView":44,
			"componentType":5126,
			"count":54,
			"max":[
				0.5,
				0.025630474090576172,
				1.1920928955078125e-07
			],
			"min":[
				0,
				-0.2542691230773926,
				-4.300000190734863
			],
			"type":"VEC3"
		},
		{
			"bufferView":45,
			"componentType":5126,
			"count":54,
			"type":"VEC3"
		},
		{
			"bufferView":46,
			"componentType":5126,
			"count":54,
			"type":"VEC2"
		},
		{
			"bufferView":47,
			"componentType":5123,
			"count":207,
			"type":"SCALAR"
		},
		{
			"bufferView":48,
			"componentType":5126,
			"count":152,
			"max":[
				0.5,
				0.5044345855712891,
				0
			],
			"min":[
				0,
				-0.03827095031738281,
				-4.300000190734863
			],
			"type":"VEC3"
		},
		{
			"bufferView":49,
			"componentType":5126,
			"count":152,
			"type":"VEC3"
		},
		{
			"bufferView":50,
			"componentType":5126,
			"count":152,
			"type":"VEC2"
		},
		{
			"bufferView":51,
			"componentType":5123,
			"count":438,
			"type":"SCALAR"
		},
		{
			"bufferView":52,
			"componentType":5126,
			"count":54,
			"max":[
				0,
				0.02563035488128662,
				0
			],
			"min":[
				-0.5,
				-0.2542688846588135,
				-4.300000190734863
			],
			"type":"VEC3"
		},
		{
			"bufferView":53,
			"componentType":5126,
			"count":54,
			"type":"VEC3"
		},
		{
			"bufferView":54,
			"componentType":5126,
			"count":54,
			"type":"VEC2"
		},
		{
			"bufferView":55,
			"componentType":5123,
			"count":207,
			"type":"SCALAR"
		},
		{
			"bufferView":56,
			"componentType":5126,
			"count":1112,
			"max":[
				0.5693426132202148,
				0.6226968765258789,
				1.6277527809143066
			],
			"min":[
				-0.5693426132202148,
				-0.6226968765258789,
				-1.6277532577514648
			],
			"type":"VEC3"
		},
		{
			"bufferView":57,
			"componentType":5126,
			"count":1112,
			"type":"VEC3"
		},
		{
			"bufferView":58,
			"componentType":5126,
			"count":1112,
			"type":"VEC2"
		},
		{
			"bufferView":59,
			"componentType":5123,
			"count":4128,
			"type":"SCALAR"
		},
		{
			"bufferView":60,
			"componentType":5126,
			"count":19,
			"max":[
				0.06779301166534424,
				0.13014578819274902,
				-0.8557443618774414
			],
			"min":[
				-0.6254228353500366,
				-0.0881500244140625,
				-1.3000001907348633
			],
			"type":"VEC3"
		},
		{
			"bufferView":61,
			"componentType":5126,
			"count":19,
			"type":"VEC3"
		},
		{
			"bufferView":62,
			"componentType":5126,
			"count":19,
			"type":"VEC2"
		},
		{
			"bufferView":63,
			"componentType":5123,
			"count":39,
			"type":"SCALAR"
		},
		{
			"bufferView":64,
			"componentType":5126,
			"count":15,
			"max":[
				0.08000004291534424,
				0.036553382873535156,
				1.5342416763305664
			],
			"min":[
				-2.563351631164551,
				-0.19040656089782715,
				-1.1941375732421875
			],
			"type":"VEC3"
		},
		{
			"bufferView":65,
			"componentType":5126,
			"count":15,
			"type":"VEC3"
		},
		{
			"bufferView":66,
			"componentType":5126,
			"count":15,
			"type":"VEC2"
		},
		{
			"bufferView":67,
			"componentType":5123,
			"count":21,
			"type":"SCALAR"
		},
		{
			"bufferView":68,
			"componentType":5126,
			"count":30,
			"max":[
				0.08000004291534424,
				0.036553382873535156,
				1.5342416763305664
			],
			"min":[
				-2.563351631164551,
				-0.19040656089782715,
				-1.3000001907348633
			],
			"type":"VEC3"
		},
		{
			"bufferView":69,
			"componentType":5126,
			"count":30,
			"type":"VEC3"
		},
		{
			"bufferView":70,
			"componentType":5126,
			"count":30,
			"type":"VEC2"
		},
		{
			"bufferView":71,
			"componentType":5123,
			"count":66,
			"type":"SCALAR"
		},
		{
			"bufferView":72,
			"componentType":5126,
			"count":17,
			"max":[
				0.08000004291534424,
				0.036553382873535156,
				1.53424072265625
			],
			"min":[
				-2.563206195831299,
				-0.030519723892211914,
				-1.3000001907348633
			],
			"type":"VEC3"
		},
		{
			"bufferView":73,
			"componentType":5126,
			"count":17,
			"type":"VEC3"
		},
		{
			"bufferView":74,
			"componentType":5126,
			"count":17,
			"type":"VEC2"
		},
		{
			"bufferView":75,
			"componentType":5123,
			"count":33,
			"type":"SCALAR"
		},
		{
			"bufferView":76,
			"componentType":5126,
			"count":19,
			"max":[
				0.6254217624664307,
				0.13014578819274902,
				-0.8557443618774414
			],
			"min":[
				-0.06779396533966064,
				-0.0881500244140625,
				-1.3000001907348633
			],
			"type":"VEC3"
		},
		{
			"bufferView":77,
			"componentType":5126,
			"count":19,
			"type":"VEC3"
		},
		{
			"bufferView":78,
			"componentType":5126,
			"count":19,
			"type":"VEC2"
		},
		{
			"bufferView":79,
			"componentType":5123,
			"count":39,
			"type":"SCALAR"
		},
		{
			"bufferView":80,
			"componentType":5126,
			"count":15,
			"max":[
				2.5633506774902344,
				0.036553382873535156,
				1.5342411994934082
			],
			"min":[
				-0.08000004291534424,
				-0.19040656089782715,
				-1.1941375732421875
			],
			"type":"VEC3"
		},
		{
			"bufferView":81,
			"componentType":5126,
			"count":15,
			"type":"VEC3"
		},
		{
			"bufferView":82,
			"componentType":5126,
			"count":15,
			"type":"VEC2"
		},
		{
			"bufferView":83,
			"componentType":5123,
			"count":21,
			"type":"SCALAR"
		},
		{
			"bufferView":84,
			"componentType":5126,
			"count":33,
			"max":[
				2.5633506774902344,
				0.036553382873535156,
				1.5342411994934082
			],
			"min":[
				-0.08000004291534424,
				-0.19040656089782715,
				-1.3000001907348633
			],
			"type":"VEC3"
		},
		{
			"bufferView":85,
			"componentType":5126,
			"count":33,
			"type":"VEC3"
		},
		{
			"bufferView":86,
			"componentType":5126,
			"count":33,
			"type":"VEC2"
		},
		{
			"bufferView":87,
			"componentType":5123,
			"count":69,
			"type":"SCALAR"
		},
		{
			"bufferView":88,
			"componentType":5126,
			"count":17,
			"max":[
				2.5632052421569824,
				0.036553382873535156,
				1.53424072265625
			],
			"min":[
				-0.08000004291534424,
				-0.030519723892211914,
				-1.3000001907348633
			],
			"type":"VEC3"
		},
		{
			"bufferView":89,
			"componentType":5126,
			"count":17,
			"type":"VEC3"
		},
		{
			"bufferView":90,
			"componentType":5126,
			"count":17,
			"type":"VEC2"
		},
		{
			"bufferView":91,
			"componentType":5123,
			"count":33,
			"type":"SCALAR"
		},
		{
			"bufferView":92,
			"componentType":5126,
			"count":120,
			"max":[
				2.2983899116516113,
				0.3162921667098999,
				0.6590633392333984
			],
			"min":[
				-2.2983899116516113,
				-0.3162921667098999,
				-0.6590633392333984
			],
			"type":"VEC3"
		},
		{
			"bufferView":93,
			"componentType":5126,
			"count":120,
			"type":"VEC3"
		},
		{
			"bufferView":94,
			"componentType":5126,
			"count":120,
			"type":"VEC2"
		},
		{
			"bufferView":95,
			"componentType":5123,
			"count":216,
			"type":"SCALAR"
		},
		{
			"bufferView":96,
			"componentType":5126,
			"count":256,
			"max":[
				0.10235445201396942,
				-0.19830572605133057,
				0.02506732940673828
			],
			"min":[
				-0.10235366225242615,
				-0.3714247941970825,
				0.02506732940673828
			],
			"type":"VEC3"
		},
		{
			"bufferView":97,
			"componentType":5126,
			"count":256,
			"type":"VEC3"
		},
		{
			"bufferView":98,
			"componentType":5126,
			"count":256,
			"type":"VEC2"
		},
		{
			"bufferView":99,
			"componentType":5123,
			"count":720,
			"type":"SCALAR"
		},
		{
			"bufferView":100,
			"componentType":5126,
			"count":1544,
			"max":[
				0.19078867137432098,
				-0.7595294713973999,
				0.1237478256225586
			],
			"min":[
				-0.19078786671161652,
				-1.0873401165008545,
				-0.21007728576660156
			],
			"type":"VEC3"
		},
		{
			"bufferView":101,
			"componentType":5126,
			"count":1544,
			"type":"VEC3"
		},
		{
			"bufferView":102,
			"componentType":5126,
			"count":1544,
			"type":"VEC2"
		},
		{
			"bufferView":103,
			"componentType":5123,
			"count":5376,
			"type":"SCALAR"
		},
		{
			"bufferView":104,
			"componentType":5126,
			"count":5020,
			"max":[
				0.1516960710287094,
				-0.8425934314727783,
				0.03231048583984375
			],
			"min":[
				-0.15169525146484375,
				-0.991736888885498,
				-0.12006807327270508
			],
			"type":"VEC3"
		},
		{
			"bufferView":105,
			"componentType":5126,
			"count":5020,
			"type":"VEC3"
		},
		{
			"bufferView":106,
			"componentType":5126,
			"count":5020,
			"type":"VEC2"
		},
		{
			"bufferView":107,
			"componentType":5123,
			"count":13572,
			"type":"SCALAR"
		},
		{
			"bufferView":108,
			"componentType":5126,
			"count":10028,
			"max":[
				0.1479286402463913,
				0.1334078311920166,
				0.6937503814697266
			],
			"min":[
				-0.14792782068252563,
				-1.021806240081787,
				-0.143341064453125
			],
			"type":"VEC3"
		},
		{
			"bufferView":109,
			"componentType":5126,
			"count":10028,
			"type":"VEC3"
		},
		{
			"bufferView":110,
			"componentType":5126,
			"count":10028,
			"type":"VEC2"
		},
		{
			"bufferView":111,
			"componentType":5123,
			"count":25986,
			"type":"SCALAR"
		},
		{
			"bufferView":112,
			"componentType":5126,
			"count":330,
			"max":[
				0.25562453269958496,
				0.2748138904571533,
				0.09572696685791016
			],
			"min":[
				0.11953270435333252,
				-0.5158487558364868,
				0.056088924407958984
			],
			"type":"VEC3"
		},
		{
			"bufferView":113,
			"componentType":5126,
			"count":330,
			"type":"VEC3"
		},
		{
			"bufferView":114,
			"componentType":5126,
			"count":330,
			"type":"VEC2"
		},
		{
			"bufferView":115,
			"componentType":5123,
			"count":564,
			"type":"SCALAR"
		},
		{
			"bufferView":116,
			"componentType":5126,
			"count":2233,
			"max":[
				0.17573976516723633,
				0.16724085807800293,
				0.2621767520904541
			],
			"min":[
				-0.18230366706848145,
				-1.8515839576721191,
				-0.26799488067626953
			],
			"type":"VEC3"
		},
		{
			"bufferView":117,
			"componentType":5126,
			"count":2233,
			"type":"VEC3"
		},
		{
			"bufferView":118,
			"componentType":5126,
			"count":2233,
			"type":"VEC2"
		},
		{
			"bufferView":119,
			"componentType":5123,
			"count":9798,
			"type":"SCALAR"
		},
		{
			"bufferView":120,
			"componentType":5126,
			"count":1393,
			"max":[
				-0.09976506233215332,
				-1.4577080011367798,
				0.3619658946990967
			],
			"min":[
				-0.23850703239440918,
				-1.9499999284744263,
				-0.13719439506530762
			],
			"type":"VEC3"
		},
		{
			"bufferView":121,
			"componentType":5126,
			"count":1393,
			"type":"VEC3"
		},
		{
			"bufferView":122,
			"componentType":5126,
			"count":1393,
			"type":"VEC2"
		},
		{
			"bufferView":123,
			"componentType":5123,
			"count":4398,
			"type":"SCALAR"
		},
		{
			"bufferView":124,
			"componentType":5126,
			"count":3439,
			"max":[
				0.2601327896118164,
				0.16724061965942383,
				0.2621767520904541
			],
			"min":[
				-0.09791028499603271,
				-1.8515833616256714,
				-0.2679945230484009
			],
			"type":"VEC3"
		},
		{
			"bufferView":125,
			"componentType":5126,
			"count":3439,
			"type":"VEC3"
		},
		{
			"bufferView":126,
			"componentType":5126,
			"count":3439,
			"type":"VEC2"
		},
		{
			"bufferView":127,
			"componentType":5123,
			"count":9798,
			"type":"SCALAR"
		},
		{
			"bufferView":128,
			"componentType":5126,
			"count":1537,
			"max":[
				0.31633591651916504,
				-1.4577077627182007,
				0.3619658946990967
			],
			"min":[
				0.17759442329406738,
				-1.949999451637268,
				-0.13719415664672852
			],
			"type":"VEC3"
		},
		{
			"bufferView":129,
			"componentType":5126,
			"count":1537,
			"type":"VEC3"
		},
		{
			"bufferView":130,
			"componentType":5126,
			"count":1537,
			"type":"VEC2"
		},
		{
			"bufferView":131,
			"componentType":5123,
			"count":4398,
			"type":"SCALAR"
		},
		{
			"bufferView":132,
			"componentType":5126,
			"count":400,
			"max":[
				-0.07765650749206543,
				0.2748134136199951,
				0.09572744369506836
			],
			"min":[
				-0.21374833583831787,
				-0.5158488750457764,
				0.05608963966369629
			],
			"type":"VEC3"
		},
		{
			"bufferView":133,
			"componentType":5126,
			"count":400,
			"type":"VEC3"
		},
		{
			"bufferView":134,
			"componentType":5126,
			"count":400,
			"type":"VEC2"
		},
		{
			"bufferView":135,
			"componentType":5123,
			"count":564,
			"type":"SCALAR"
		},
		{
			"bufferView":136,
			"componentType":5126,
			"count":608,
			"max":[
				0.15999998152256012,
				0.4024999141693115,
				0.11500024795532227
			],
			"min":[
				-0.15999996662139893,
				0.08249974250793457,
				-0.2049999237060547
			],
			"type":"VEC3"
		},
		{
			"bufferView":137,
			"componentType":5126,
			"count":608,
			"type":"VEC3"
		},
		{
			"bufferView":138,
			"componentType":5126,
			"count":608,
			"type":"VEC2"
		},
		{
			"bufferView":139,
			"componentType":5123,
			"count":864,
			"type":"SCALAR"
		},
		{
			"bufferView":140,
			"componentType":5126,
			"count":24,
			"max":[
				0.22499999403953552,
				0.14750003814697266,
				0.2049999237060547
			],
			"min":[
				-0.22499999403953552,
				-0.4025001525878906,
				-0.0950002670288086
			],
			"type":"VEC3"
		},
		{
			"bufferView":141,
			"componentType":5126,
			"count":24,
			"type":"VEC3"
		},
		{
			"bufferView":142,
			"componentType":5126,
			"count":24,
			"type":"VEC2"
		},
		{
			"bufferView":143,
			"componentType":5123,
			"count":36,
			"type":"SCALAR"
		},
		{
			"bufferView":144,
			"componentType":5126,
			"count":21,
			"max":[
				0.7881367206573486,
				2.058166980743408,
				1.583740234375
			],
			"min":[
				-0.03853416442871094,
				-0.05871772766113281,
				0.5216045379638672
			],
			"type":"VEC3"
		},
		{
			"bufferView":145,
			"componentType":5126,
			"count":21,
			"type":"VEC3"
		},
		{
			"bufferView":146,
			"componentType":5126,
			"count":21,
			"type":"VEC2"
		},
		{
			"bufferView":147,
			"componentType":5123,
			"count":27,
			"type":"SCALAR"
		},
		{
			"bufferView":148,
			"componentType":5126,
			"count":36,
			"max":[
				0.7881367206573486,
				2.058166980743408,
				1.583740234375
			],
			"min":[
				-0.046561360359191895,
				-0.0888662338256836,
				-0.05659675598144531
			],
			"type":"VEC3"
		},
		{
			"bufferView":149,
			"componentType":5126,
			"count":36,
			"type":"VEC3"
		},
		{
			"bufferView":150,
			"componentType":5126,
			"count":36,
			"type":"VEC2"
		},
		{
			"bufferView":151,
			"componentType":5123,
			"count":60,
			"type":"SCALAR"
		},
		{
			"bufferView":152,
			"componentType":5126,
			"count":21,
			"max":[
				0.03853297233581543,
				2.058166980743408,
				1.5837392807006836
			],
			"min":[
				-0.788137674331665,
				-0.05871772766113281,
				0.5216045379638672
			],
			"type":"VEC3"
		},
		{
			"bufferView":153,
			"componentType":5126,
			"count":21,
			"type":"VEC3"
		},
		{
			"bufferView":154,
			"componentType":5126,
			"count":21,
			"type":"VEC2"
		},
		{
			"bufferView":155,
			"componentType":5123,
			"count":27,
			"type":"SCALAR"
		},
		{
			"bufferView":156,
			"componentType":5126,
			"count":36,
			"max":[
				0.04656040668487549,
				2.058166980743408,
				1.5837392807006836
			],
			"min":[
				-0.788137674331665,
				-0.0888662338256836,
				-0.056595802307128906
			],
			"type":"VEC3"
		},
		{
			"bufferView":157,
			"componentType":5126,
			"count":36,
			"type":"VEC3"
		},
		{
			"bufferView":158,
			"componentType":5126,
			"count":36,
			"type":"VEC2"
		},
		{
			"bufferView":159,
			"componentType":5123,
			"count":60,
			"type":"SCALAR"
		},
		{
			"bufferView":160,
			"componentType":5126,
			"count":559,
			"max":[
				-5.202603340148926,
				0.4258641004562378,
				1.3154335021972656
			],
			"min":[
				-5.302539825439453,
				0.3804067373275757,
				1.2154974937438965
			],
			"type":"VEC3"
		},
		{
			"bufferView":161,
			"componentType":5126,
			"count":559,
			"type":"VEC3"
		},
		{
			"bufferView":162,
			"componentType":5126,
			"count":559,
			"type":"VEC2"
		},
		{
			"bufferView":163,
			"componentType":5123,
			"count":2880,
			"type":"SCALAR"
		},
		{
			"bufferView":164,
			"componentType":5126,
			"count":559,
			"max":[
				5.377676010131836,
				0.4258641004562378,
				1.315434455871582
			],
			"min":[
				5.277739524841309,
				0.3804067373275757,
				1.215498447418213
			],
			"type":"VEC3"
		},
		{
			"bufferView":165,
			"componentType":5126,
			"count":559,
			"type":"VEC3"
		},
		{
			"bufferView":166,
			"componentType":5126,
			"count":559,
			"type":"VEC2"
		},
		{
			"bufferView":167,
			"componentType":5126,
			"count":1414,
			"max":[
				1.0470805168151855,
				-0.43044936656951904,
				2.5487489700317383
			],
			"min":[
				-1.08066987991333,
				-0.6157453060150146,
				0.7204614877700806
			],
			"type":"VEC3"
		},
		{
			"bufferView":168,
			"componentType":5126,
			"count":1414,
			"type":"VEC3"
		},
		{
			"bufferView":169,
			"componentType":5126,
			"count":1414,
			"type":"VEC2"
		},
		{
			"bufferView":170,
			"componentType":5123,
			"count":2256,
			"type":"SCALAR"
		},
		{
			"bufferView":171,
			"componentType":5126,
			"count":280,
			"max":[
				0.5711566805839539,
				0.5264459848403931,
				-6.5939435958862305
			],
			"min":[
				-0.5660833120346069,
				0.43867695331573486,
				-6.83513879776001
			],
			"type":"VEC3"
		},
		{
			"bufferView":172,
			"componentType":5126,
			"count":280,
			"type":"VEC3"
		},
		{
			"bufferView":173,
			"componentType":5126,
			"count":280,
			"type":"VEC2"
		},
		{
			"bufferView":174,
			"componentType":5123,
			"count":432,
			"type":"SCALAR"
		},
		{
			"bufferView":175,
			"componentType":5126,
			"count":198,
			"max":[
				0.893355131149292,
				0.22715628147125244,
				-4.645618438720703
			],
			"min":[
				-0.8933544158935547,
				0.12566757202148438,
				-5.418186187744141
			],
			"type":"VEC3"
		},
		{
			"bufferView":176,
			"componentType":5126,
			"count":198,
			"type":"VEC3"
		},
		{
			"bufferView":177,
			"componentType":5126,
			"count":198,
			"type":"VEC2"
		},
		{
			"bufferView":178,
			"componentType":5123,
			"count":276,
			"type":"SCALAR"
		},
		{
			"bufferView":179,
			"componentType":5126,
			"count":238,
			"max":[
				2.708935260772705,
				0.3747454881668091,
				3.52787446975708
			],
			"min":[
				-2.7089357376098633,
				-0.027163386344909668,
				-1.044669508934021
			],
			"type":"VEC3"
		},
		{
			"bufferView":180,
			"componentType":5126,
			"count":238,
			"type":"VEC3"
		},
		{
			"bufferView":181,
			"componentType":5126,
			"count":238,
			"type":"VEC2"
		},
		{
			"bufferView":182,
			"componentType":5123,
			"count":660,
			"type":"SCALAR"
		},
		{
			"bufferView":183,
			"componentType":5126,
			"count":281,
			"max":[
				2.708935260772705,
				0.31070029735565186,
				3.52787446975708
			],
			"min":[
				-2.7089357376098633,
				-0.02716350555419922,
				-1.044669508934021
			],
			"type":"VEC3"
		},
		{
			"bufferView":184,
			"componentType":5126,
			"count":281,
			"type":"VEC3"
		},
		{
			"bufferView":185,
			"componentType":5126,
			"count":281,
			"type":"VEC2"
		},
		{
			"bufferView":186,
			"componentType":5123,
			"count":834,
			"type":"SCALAR"
		},
		{
			"bufferView":187,
			"componentType":5126,
			"count":250,
			"max":[
				0.30079489946365356,
				0.5461059808731079,
				-6.984342098236084
			],
			"min":[
				-0.3007938861846924,
				-0.055144429206848145,
				-7.170039176940918
			],
			"type":"VEC3"
		},
		{
			"bufferView":188,
			"componentType":5126,
			"count":250,
			"type":"VEC3"
		},
		{
			"bufferView":189,
			"componentType":5126,
			"count":250,
			"type":"VEC2"
		},
		{
			"bufferView":190,
			"componentType":5123,
			"count":420,
			"type":"SCALAR"
		},
		{
			"bufferView":191,
			"componentType":5126,
			"count":338,
			"max":[
				1.2790508270263672,
				0.8040271997451782,
				0.1798238754272461
			],
			"min":[
				-1.279050588607788,
				-0.5793154239654541,
				-5.696475505828857
			],
			"type":"VEC3"
		},
		{
			"bufferView":192,
			"componentType":5126,
			"count":338,
			"type":"VEC3"
		},
		{
			"bufferView":193,
			"componentType":5126,
			"count":338,
			"type":"VEC2"
		},
		{
			"bufferView":194,
			"componentType":5123,
			"count":786,
			"type":"SCALAR"
		},
		{
			"bufferView":195,
			"componentType":5126,
			"count":1849,
			"max":[
				1.2790508270263672,
				1.2270697355270386,
				0.06912660598754883
			],
			"min":[
				-1.279050588607788,
				-0.701897382736206,
				-8.835000991821289
			],
			"type":"VEC3"
		},
		{
			"bufferView":196,
			"componentType":5126,
			"count":1849,
			"type":"VEC3"
		},
		{
			"bufferView":197,
			"componentType":5126,
			"count":1849,
			"type":"VEC2"
		},
		{
			"bufferView":198,
			"componentType":5123,
			"count":7002,
			"type":"SCALAR"
		},
		{
			"bufferView":199,
			"componentType":5126,
			"count":427,
			"max":[
				5.438447952270508,
				1.2259052991867065,
				4.5376057624816895
			],
			"min":[
				-5.438448905944824,
				-0.3823298215866089,
				-8.835000991821289
			],
			"type":"VEC3"
		},
		{
			"bufferView":200,
			"componentType":5126,
			"count":427,
			"type":"VEC3"
		},
		{
			"bufferView":201,
			"componentType":5126,
			"count":427,
			"type":"VEC2"
		},
		{
			"bufferView":202,
			"componentType":5123,
			"count":1353,
			"type":"SCALAR"
		},
		{
			"bufferView":203,
			"componentType":5126,
			"count":1429,
			"max":[
				3.663206100463867,
				1.0199626684188843,
				6.835000038146973
			],
			"min":[
				-3.6632070541381836,
				-1.099420189857483,
				-6.428852081298828
			],
			"type":"VEC3"
		},
		{
			"bufferView":204,
			"componentType":5126,
			"count":1429,
			"type":"VEC3"
		},
		{
			"bufferView":205,
			"componentType":5126,
			"count":1429,
			"type":"VEC2"
		},
		{
			"bufferView":206,
			"componentType":5123,
			"count":3396,
			"type":"SCALAR"
		},
		{
			"bufferView":207,
			"componentType":5126,
			"count":58,
			"max":[
				3.663205623626709,
				0.4553614854812622,
				6.835000038146973
			],
			"min":[
				-3.6632065773010254,
				0.38948023319244385,
				3.9959988594055176
			],
			"type":"VEC3"
		},
		{
			"bufferView":208,
			"componentType":5126,
			"count":58,
			"type":"VEC3"
		},
		{
			"bufferView":209,
			"componentType":5126,
			"count":58,
			"type":"VEC2"
		},
		{
			"bufferView":210,
			"componentType":5123,
			"count":102,
			"type":"SCALAR"
		},
		{
			"bufferView":211,
			"componentType":5126,
			"count":1967,
			"max":[
				5.438447952270508,
				0.4732578992843628,
				6.835000038146973
			],
			"min":[
				-5.438448905944824,
				-1.049128770828247,
				-4.601227760314941
			],
			"type":"VEC3"
		},
		{
			"bufferView":212,
			"componentType":5126,
			"count":1967,
			"type":"VEC3"
		},
		{
			"bufferView":213,
			"componentType":5126,
			"count":1967,
			"type":"VEC2"
		},
		{
			"bufferView":214,
			"componentType":5123,
			"count":7491,
			"type":"SCALAR"
		},
		{
			"bufferView":215,
			"componentType":5126,
			"count":4101,
			"max":[
				1.525984525680542,
				1.2611411809921265,
				1.4446043968200684
			],
			"min":[
				-1.525984525680542,
				-1.1152522563934326,
				-6.428852081298828
			],
			"type":"VEC3"
		},
		{
			"bufferView":216,
			"componentType":5126,
			"count":4101,
			"type":"VEC3"
		},
		{
			"bufferView":217,
			"componentType":5126,
			"count":4101,
			"type":"VEC2"
		},
		{
			"bufferView":218,
			"componentType":5123,
			"count":6696,
			"type":"SCALAR"
		},
		{
			"bufferView":219,
			"componentType":5126,
			"count":3629,
			"max":[
				0.8620821237564087,
				1.2369474172592163,
				4.60884952545166
			],
			"min":[
				-0.862082839012146,
				-0.9590445756912231,
				-5.6601667404174805
			],
			"type":"VEC3"
		},
		{
			"bufferView":220,
			"componentType":5126,
			"count":3629,
			"type":"VEC3"
		},
		{
			"bufferView":221,
			"componentType":5126,
			"count":3629,
			"type":"VEC2"
		},
		{
			"bufferView":222,
			"componentType":5123,
			"count":8394,
			"type":"SCALAR"
		},
		{
			"bufferView":223,
			"componentType":5126,
			"count":30,
			"max":[
				2.3075320720672607,
				2.6081557273864746,
				5.802530288696289
			],
			"min":[
				-2.307533025741577,
				0.3736070394515991,
				2.8147644996643066
			],
			"type":"VEC3"
		},
		{
			"bufferView":224,
			"componentType":5126,
			"count":30,
			"type":"VEC3"
		},
		{
			"bufferView":225,
			"componentType":5126,
			"count":30,
			"type":"VEC2"
		},
		{
			"bufferView":226,
			"componentType":5123,
			"count":42,
			"type":"SCALAR"
		},
		{
			"bufferView":227,
			"componentType":5126,
			"count":72,
			"max":[
				2.3075320720672607,
				2.6081557273864746,
				5.802530288696289
			],
			"min":[
				-2.307533025741577,
				0.3736070394515991,
				2.8147644996643066
			],
			"type":"VEC3"
		},
		{
			"bufferView":228,
			"componentType":5126,
			"count":72,
			"type":"VEC3"
		},
		{
			"bufferView":229,
			"componentType":5126,
			"count":72,
			"type":"VEC2"
		},
		{
			"bufferView":230,
			"componentType":5123,
			"count":120,
			"type":"SCALAR"
		},
		{
			"bufferView":231,
			"componentType":5126,
			"count":10685,
			"max":[
				0.6392598152160645,
				0.7272053956985474,
				5.246641159057617
			],
			"min":[
				-0.6392607688903809,
				-0.5464707612991333,
				4.082825660705566
			],
			"type":"VEC3"
		},
		{
			"bufferView":232,
			"componentType":5126,
			"count":10685,
			"type":"VEC3"
		},
		{
			"bufferView":233,
			"componentType":5126,
			"count":10685,
			"type":"VEC2"
		},
		{
			"bufferView":234,
			"componentType":5123,
			"count":18105,
			"type":"SCALAR"
		},
		{
			"bufferView":235,
			"componentType":5126,
			"count":450,
			"max":[
				2.090024471282959,
				1.9714564085006714,
				4.434112548828125
			],
			"min":[
				-2.0900254249572754,
				1.2759212255477905,
				3.7697854042053223
			],
			"type":"VEC3"
		},
		{
			"bufferView":236,
			"componentType":5126,
			"count":450,
			"type":"VEC3"
		},
		{
			"bufferView":237,
			"componentType":5126,
			"count":450,
			"type":"VEC2"
		},
		{
			"bufferView":238,
			"componentType":5123,
			"count":552,
			"type":"SCALAR"
		},
		{
			"bufferView":239,
			"componentType":5126,
			"count":58,
			"max":[
				2.0867550373077393,
				1.9566673040390015,
				4.424581527709961
			],
			"min":[
				-2.0867559909820557,
				1.2959381341934204,
				3.780999183654785
			],
			"type":"VEC3"
		},
		{
			"bufferView":240,
			"componentType":5126,
			"count":58,
			"type":"VEC3"
		},
		{
			"bufferView":241,
			"componentType":5126,
			"count":58,
			"type":"VEC2"
		},
		{
			"bufferView":242,
			"componentType":5123,
			"count":72,
			"type":"SCALAR"
		},
		{
			"bufferView":243,
			"componentType":5126,
			"count":128,
			"max":[
				0.1379149705171585,
				-0.11131703853607178,
				-7.769625186920166
			],
			"min":[
				-0.1379137486219406,
				-0.2956271171569824,
				-8.173458099365234
			],
			"type":"VEC3"
		},
		{
			"bufferView":244,
			"componentType":5126,
			"count":128,
			"type":"VEC3"
		},
		{
			"bufferView":245,
			"componentType":5126,
			"count":128,
			"type":"VEC2"
		},
		{
			"bufferView":246,
			"componentType":5123,
			"count":192,
			"type":"SCALAR"
		},
		{
			"bufferView":247,
			"componentType":5126,
			"count":796,
			"max":[
				4.000382900238037,
				0.5343152284622192,
				2.1001617908477783
			],
			"min":[
				-4.00018310546875,
				-0.2885608673095703,
				-3.7000513076782227
			],
			"type":"VEC3"
		},
		{
			"bufferView":248,
			"componentType":5126,
			"count":796,
			"type":"VEC3"
		},
		{
			"bufferView":249,
			"componentType":5126,
			"count":796,
			"type":"VEC2"
		},
		{
			"bufferView":250,
			"componentType":5123,
			"count":1536,
			"type":"SCALAR"
		},
		{
			"bufferView":251,
			"componentType":5126,
			"count":1802,
			"max":[
				2.242305278778076,
				2.390848159790039,
				5.127376079559326
			],
			"min":[
				-2.2420663833618164,
				0.3703974485397339,
				-6.772227764129639
			],
			"type":"VEC3"
		},
		{
			"bufferView":252,
			"componentType":5126,
			"count":1802,
			"type":"VEC3"
		},
		{
			"bufferView":253,
			"componentType":5126,
			"count":1802,
			"type":"VEC2"
		},
		{
			"bufferView":254,
			"componentType":5123,
			"count":2586,
			"type":"SCALAR"
		},
		{
			"bufferView":255,
			"componentType":5126,
			"count":272,
			"max":[
				2.064788579940796,
				1.8760844469070435,
				4.85003662109375
			],
			"min":[
				-2.0647895336151123,
				1.2186249494552612,
				4.14996862411499
			],
			"type":"VEC3"
		},
		{
			"bufferView":256,
			"componentType":5126,
			"count":272,
			"type":"VEC3"
		},
		{
			"bufferView":257,
			"componentType":5126,
			"count":272,
			"type":"VEC2"
		},
		{
			"bufferView":258,
			"componentType":5123,
			"count":768,
			"type":"SCALAR"
		},
		{
			"bufferView":259,
			"componentType":5126,
			"count":701,
			"max":[
				1.350000023841858,
				0.21730244159698486,
				0.40000009536743164
			],
			"min":[
				-1.350000023841858,
				-0.7754031419754028,
				-3.9000000953674316
			],
			"type":"VEC3"
		},
		{
			"bufferView":260,
			"componentType":5126,
			"count":701,
			"type":"VEC3"
		},
		{
			"bufferView":261,
			"componentType":5126,
			"count":701,
			"type":"VEC2"
		},
		{
			"bufferView":262,
			"componentType":5123,
			"count":2958,
			"type":"SCALAR"
		}
	],
	"bufferViews":[
		{
			"buffer":0,
			"byteLength":120,
			"byteOffset":0,
			"target":34962
		},
		{
			"buffer":0,
			"byteLength":120,
			"byteOffset":120,
			"target":34962
		},
		{
			"buffer":0,
			"byteLength":80,
			"byteOffset":240,
			"target":34962
		},
		{
			"buffer":0,
			"byteLength":36,
			"byteOffset":320,
			"target":34963
		},
		{
			"buffer":0,
			"byteLength":84,
			"byteOffset":356,
			"target":34962
		},
		{
			"buffer":0,
			"byteLength":84,
			"byteOffset":440,
			"target":34962
		},
		{
			"buffer":0,
			"byteLength":56,
			"byteOffset":524,
			"target":34962
		},
		{
			"buffer":0,
			"byteLength":30,
			"byteOffset":580,
			"target":34963
		},
		{
			"buffer":0,
			"byteLength":216,
			"byteOffset":612,
			"target":34962
		},
		{
			"buffer":0,
			"byteLength":216,
			"byteOffset":828,
			"target":34962
		},
		{
			"buffer":0,
			"byteLength":144,
			"byteOffset":1044,
			"target":34962
		},
		{
			"buffer":0,
			"byteLength":84,
			"byteOffset":1188,
			"target":34963
		},
		{
			"buffer":0,
			"byteLength":120,
			"byteOffset":1272,
			"target":34962
		},
		{
			"buffer":0,
			"byteLength":120,
			"byteOffset":1392,
			"target":34962
		},
		{
			"buffer":0,
			"byteLength":80,
			"byteOffset":1512,
			"target":34962
		},
		{
			"buffer":0,
			"byteLength":54,
			"byteOffset":1592,
			"target":34963
		},
		{
			"buffer":0,
			"byteLength":216,
			"byteOffset":1648,
			"target":34962
		},
		{
			"buffer":0,
			"byteLength":216,
			"byteOffset":1864,
			"target":34962
		},
		{
			"buffer":0,
			"byteLength":144,
			"byteOffset":2080,
			"target":34962
		},
		{
			"buffer":0,
			"byteLength":96,
			"byteOffset":2224,
			"target":34963
		},
		{
			"buffer":0,
			"byteLength":108,
			"byteOffset":2320,
			"target":34962
		},
		{
			"buffer":0,
			"byteLength":108,
			"byteOffset":2428,
			"target":34962
		},
		{
			"buffer":0,
			"byteLength":72,
			"byteOffset":2536,
			"target":34962
		},
		{
			"buffer":0,
			"byteLength":42,
			"byteOffset":2608,
			"target":34963
		},
		{
			"buffer":0,
			"byteLength":84,
			"byteOffset":2652,
			"target":34962
		},
		{
			"buffer":0,
			"byteLength":84,
			"byteOffset":2736,
			"target":34962
		},
		{
			"buffer":0,
			"byteLength":56,
			"byteOffset":2820,
			"target":34962
		},
		{
			"buffer":0,
			"byteLength":30,
			"byteOffset":2876,
			"target":34963
		},
		{
			"buffer":0,
			"byteLength":216,
			"byteOffset":2908,
			"target":34962
		},
		{
			"buffer":0,
			"byteLength":216,
			"byteOffset":3124,
			"target":34962
		},
		{
			"buffer":0,
			"byteLength":144,
			"byteOffset":3340,
			"target":34962
		},
		{
			"buffer":0,
			"byteLength":84,
			"byteOffset":3484,
			"target":34963
		},
		{
			"buffer":0,
			"byteLength":120,
			"byteOffset":3568,
			"target":34962
		},
		{
			"buffer":0,
			"byteLength":120,
			"byteOffset":3688,
			"target":34962
		},
		{
			"buffer":0,
			"byteLength":80,
			"byteOffset":3808,
			"target":34962
		},
		{
			"buffer":0,
			"byteLength":54,
			"byteOffset":3888,
			"target":34963
		},
		{
			"buffer":0,
			"byteLength":324,
			"byteOffset":3944,
			"target":34962
		},
		{
			"buffer":0,
			"byteLength":324,
			"byteOffset":4268,
			"target":34962
		},
		{
			"buffer":0,
			"byteLength":216,
			"byteOffset":4592,
			"target":34962
		},
		{
			"buffer":0,
			"byteLength":96,
			"byteOffset":4808,
			"target":34963
		},
		{
			"buffer":0,
			"byteLength":1884,
			"byteOffset":4904,
			"target":34962
		},
		{
			"buffer":0,
			"byteLength":1884,
			"byteOffset":6788,
			"target":34962
		},
		{
			"buffer":0,
			"byteLength":1256,
			"byteOffset":8672,
			"target":34962
		},
		{
			"buffer":0,
			"byteLength":876,
			"byteOffset":9928,
			"target":34963
		},
		{
			"buffer":0,
			"byteLength":648,
			"byteOffset":10804,
			"target":34962
		},
		{
			"buffer":0,
			"byteLength":648,
			"byteOffset":11452,
			"target":34962
		},
		{
			"buffer":0,
			"byteLength":432,
			"byteOffset":12100,
			"target":34962
		},
		{
			"buffer":0,
			"byteLength":414,
			"byteOffset":12532,
			"target":34963
		},
		{
			"buffer":0,
			"byteLength":1824,
			"byteOffset":12948,
			"target":34962
		},
		{
			"buffer":0,
			"byteLength":1824,
			"byteOffset":14772,
			"target":34962
		},
		{
			"buffer":0,
			"byteLength":1216,
			"byteOffset":16596,
			"target":34962
		},
		{
			"buffer":0,
			"byteLength":876,
			"byteOffset":17812,
			"target":34963
		},
		{
			"buffer":0,
			"byteLength":648,
			"byteOffset":18688,
			"target":34962
		},
		{
			"buffer":0,
			"byteLength":648,
			"byteOffset":19336,
			"target":34962
		},
		{
			"buffer":0,
			"byteLength":432,
			"byteOffset":19984,
			"target":34962
		},
		{
			"buffer":0,
			"byteLength":414,
			"byteOffset":20416,
			"target":34963
		},
		{
			"buffer":0,
			"byteLength":13344,
			"byteOffset":20832,
			"target":34962
		},
		{
			"buffer":0,
			"byteLength":13344,
			"byteOffset":34176,
			"target":34962
		},
		{
			"buffer":0,
			"byteLength":8896,
			"byteOffset":47520,
			"target":34962
		},
		{
			"buffer":0,
			"byteLength":8256,
			"byteOffset":56416,
			"target":34963
		},
		{
			"buffer":0,
			"byteLength":228,
			"byteOffset":64672,
			"target":34962
		},
		{
			"buffer":0,
			"byteLength":228,
			"byteOffset":64900,
			"target":34962
		},
		{
			"buffer":0,
			"byteLength":152,
			"byteOffset":65128,
			"target":34962
		},
		{
			"buffer":0,
			"byteLength":78,
			"byteOffset":65280,
			"target":34963
		},
		{
			"buffer":0,
			"byteLength":180,
			"byteOffset":65360,
			"target":34962
		},
		{
			"buffer":0,
			"byteLength":180,
			"byteOffset":65540,
			"target":34962
		},
		{
			"buffer":0,
			"byteLength":120,
			"byteOffset":65720,
			"target":34962
		},
		{
			"buffer":0,
			"byteLength":42,
			"byteOffset":65840,
			"target":34963
		},
		{
			"buffer":0,
			"byteLength":360,
			"byteOffset":65884,
			"target":34962
		},
		{
			"buffer":0,
			"byteLength":360,
			"byteOffset":66244,
			"target":34962
		},
		{
			"buffer":0,
			"byteLength":240,
			"byteOffset":66604,
			"target":34962
		},
		{
			"buffer":0,
			"byteLength":132,
			"byteOffset":66844,
			"target":34963
		},
		{
			"buffer":0,
			"byteLength":204,
			"byteOffset":66976,
			"target":34962
		},
		{
			"buffer":0,
			"byteLength":204,
			"byteOffset":67180,
			"target":34962
		},
		{
			"buffer":0,
			"byteLength":136,
			"byteOffset":67384,
			"target":34962
		},
		{
			"buffer":0,
			"byteLength":66,
			"byteOffset":67520,
			"target":34963
		},
		{
			"buffer":0,
			"byteLength":228,
			"byteOffset":67588,
			"target":34962
		},
		{
			"buffer":0,
			"byteLength":228,
			"byteOffset":67816,
			"target":34962
		},
		{
			"buffer":0,
			"byteLength":152,
			"byteOffset":68044,
			"target":34962
		},
		{
			"buffer":0,
			"byteLength":78,
			"byteOffset":68196,
			"target":34963
		},
		{
			"buffer":0,
			"byteLength":180,
			"byteOffset":68276,
			"target":34962
		},
		{
			"buffer":0,
			"byteLength":180,
			"byteOffset":68456,
			"target":34962
		},
		{
			"buffer":0,
			"byteLength":120,
			"byteOffset":68636,
			"target":34962
		},
		{
			"buffer":0,
			"byteLength":42,
			"byteOffset":68756,
			"target":34963
		},
		{
			"buffer":0,
			"byteLength":396,
			"byteOffset":68800,
			"target":34962
		},
		{
			"buffer":0,
			"byteLength":396,
			"byteOffset":69196,
			"target":34962
		},
		{
			"buffer":0,
			"byteLength":264,
			"byteOffset":69592,
			"target":34962
		},
		{
			"buffer":0,
			"byteLength":138,
			"byteOffset":69856,
			"target":34963
		},
		{
			"buffer":0,
			"byteLength":204,
			"byteOffset":69996,
			"target":34962
		},
		{
			"buffer":0,
			"byteLength":204,
			"byteOffset":70200,
			"target":34962
		},
		{
			"buffer":0,
			"byteLength":136,
			"byteOffset":70404,
			"target":34962
		},
		{
			"buffer":0,
			"byteLength":66,
			"byteOffset":70540,
			"target":34963
		},
		{
			"buffer":0,
			"byteLength":1440,
			"byteOffset":70608,
			"target":34962
		},
		{
			"buffer":0,
			"byteLength":1440,
			"byteOffset":72048,
			"target":34962
		},
		{
			"buffer":0,
			"byteLength":960,
			"byteOffset":73488,
			"target":34962
		},
		{
			"buffer":0,
			"byteLength":432,
			"byteOffset":74448,
			"target":34963
		},
		{
			"buffer":0,
			"byteLength":3072,
			"byteOffset":74880,
			"target":34962
		},
		{
			"buffer":0,
			"byteLength":3072,
			"byteOffset":77952,
			"target":34962
		},
		{
			"buffer":0,
			"byteLength":2048,
			"byteOffset":81024,
			"target":34962
		},
		{
			"buffer":0,
			"byteLength":1440,
			"byteOffset":83072,
			"target":34963
		},
		{
			"buffer":0,
			"byteLength":18528,
			"byteOffset":84512,
			"target":34962
		},
		{
			"buffer":0,
			"byteLength":18528,
			"byteOffset":103040,
			"target":34962
		},
		{
			"buffer":0,
			"byteLength":12352,
			"byteOffset":121568,
			"target":34962
		},
		{
			"buffer":0,
			"byteLength":10752,
			"byteOffset":133920,
			"target":34963
		},
		{
			"buffer":0,
			"byteLength":60240,
			"byteOffset":144672,
			"target":34962
		},
		{
			"buffer":0,
			"byteLength":60240,
			"byteOffset":204912,
			"target":34962
		},
		{
			"buffer":0,
			"byteLength":40160,
			"byteOffset":265152,
			"target":34962
		},
		{
			"buffer":0,
			"byteLength":27144,
			"byteOffset":305312,
			"target":34963
		},
		{
			"buffer":0,
			"byteLength":120336,
			"byteOffset":332456,
			"target":34962
		},
		{
			"buffer":0,
			"byteLength":120336,
			"byteOffset":452792,
			"target":34962
		},
		{
			"buffer":0,
			"byteLength":80224,
			"byteOffset":573128,
			"target":34962
		},
		{
			"buffer":0,
			"byteLength":51972,
			"byteOffset":653352,
			"target":34963
		},
		{
			"buffer":0,
			"byteLength":3960,
			"byteOffset":705324,
			"target":34962
		},
		{
			"buffer":0,
			"byteLength":3960,
			"byteOffset":709284,
			"target":34962
		},
		{
			"buffer":0,
			"byteLength":2640,
			"byteOffset":713244,
			"target":34962
		},
		{
			"buffer":0,
			"byteLength":1128,
			"byteOffset":715884,
			"target":34963
		},
		{
			"buffer":0,
			"byteLength":26796,
			"byteOffset":717012,
			"target":34962
		},
		{
			"buffer":0,
			"byteLength":26796,
			"byteOffset":743808,
			"target":34962
		},
		{
			"buffer":0,
			"byteLength":17864,
			"byteOffset":770604,
			"target":34962
		},
		{
			"buffer":0,
			"byteLength":19596,
			"byteOffset":788468,
			"target":34963
		},
		{
			"buffer":0,
			"byteLength":16716,
			"byteOffset":808064,
			"target":34962
		},
		{
			"buffer":0,
			"byteLength":16716,
			"byteOffset":824780,
			"target":34962
		},
		{
			"buffer":0,
			"byteLength":11144,
			"byteOffset":841496,
			"target":34962
		},
		{
			"buffer":0,
			"byteLength":8796,
			"byteOffset":852640,
			"target":34963
		},
		{
			"buffer":0,
			"byteLength":41268,
			"byteOffset":861436,
			"target":34962
		},
		{
			"buffer":0,
			"byteLength":41268,
			"byteOffset":902704,
			"target":34962
		},
		{
			"buffer":0,
			"byteLength":27512,
			"byteOffset":943972,
			"target":34962
		},
		{
			"buffer":0,
			"byteLength":19596,
			"byteOffset":971484,
			"target":34963
		},
		{
			"buffer":0,
			"byteLength":18444,
			"byteOffset":991080,
			"target":34962
		},
		{
			"buffer":0,
			"byteLength":18444,
			"byteOffset":1009524,
			"target":34962
		},
		{
			"buffer":0,
			"byteLength":12296,
			"byteOffset":1027968,
			"target":34962
		},
		{
			"buffer":0,
			"byteLength":8796,
			"byteOffset":1040264,
			"target":34963
		},
		{
			"buffer":0,
			"byteLength":4800,
			"byteOffset":1049060,
			"target":34962
		},
		{
			"buffer":0,
			"byteLength":4800,
			"byteOffset":1053860,
			"target":34962
		},
		{
			"buffer":0,
			"byteLength":3200,
			"byteOffset":1058660,
			"target":34962
		},
		{
			"buffer":0,
			"byteLength":1128,
			"byteOffset":1061860,
			"target":34963
		},
		{
			"buffer":0,
			"byteLength":7296,
			"byteOffset":1062988,
			"target":34962
		},
		{
			"buffer":0,
			"byteLength":7296,
			"byteOffset":1070284,
			"target":34962
		},
		{
			"buffer":0,
			"byteLength":4864,
			"byteOffset":1077580,
			"target":34962
		},
		{
			"buffer":0,
			"byteLength":1728,
			"byteOffset":1082444,
			"target":34963
		},
		{
			"buffer":0,
			"byteLength":288,
			"byteOffset":1084172,
			"target":34962
		},
		{
			"buffer":0,
			"byteLength":288,
			"byteOffset":1084460,
			"target":34962
		},
		{
			"buffer":0,
			"byteLength":192,
			"byteOffset":1084748,
			"target":34962
		},
		{
			"buffer":0,
			"byteLength":72,
			"byteOffset":1084940,
			"target":34963
		},
		{
			"buffer":0,
			"byteLength":252,
			"byteOffset":1085012,
			"target":34962
		},
		{
			"buffer":0,
			"byteLength":252,
			"byteOffset":1085264,
			"target":34962
		},
		{
			"buffer":0,
			"byteLength":168,
			"byteOffset":1085516,
			"target":34962
		},
		{
			"buffer":0,
			"byteLength":54,
			"byteOffset":1085684,
			"target":34963
		},
		{
			"buffer":0,
			"byteLength":432,
			"byteOffset":1085740,
			"target":34962
		},
		{
			"buffer":0,
			"byteLength":432,
			"byteOffset":1086172,
			"target":34962
		},
		{
			"buffer":0,
			"byteLength":288,
			"byteOffset":1086604,
			"target":34962
		},
		{
			"buffer":0,
			"byteLength":120,
			"byteOffset":1086892,
			"target":34963
		},
		{
			"buffer":0,
			"byteLength":252,
			"byteOffset":1087012,
			"target":34962
		},
		{
			"buffer":0,
			"byteLength":252,
			"byteOffset":1087264,
			"target":34962
		},
		{
			"buffer":0,
			"byteLength":168,
			"byteOffset":1087516,
			"target":34962
		},
		{
			"buffer":0,
			"byteLength":54,
			"byteOffset":1087684,
			"target":34963
		},
		{
			"buffer":0,
			"byteLength":432,
			"byteOffset":1087740,
			"target":34962
		},
		{
			"buffer":0,
			"byteLength":432,
			"byteOffset":1088172,
			"target":34962
		},
		{
			"buffer":0,
			"byteLength":288,
			"byteOffset":1088604,
			"target":34962
		},
		{
			"buffer":0,
			"byteLength":120,
			"byteOffset":1088892,
			"target":34963
		},
		{
			"buffer":0,
			"byteLength":6708,
			"byteOffset":1089012,
			"target":34962
		},
		{
			"buffer":0,
			"byteLength":6708,
			"byteOffset":1095720,
			"target":34962
		},
		{
			"buffer":0,
			"byteLength":4472,
			"byteOffset":1102428,
			"target":34962
		},
		{
			"buffer":0,
			"byteLength":5760,
			"byteOffset":1106900,
			"target":34963
		},
		{
			"buffer":0,
			"byteLength":6708,
			"byteOffset":1112660,
			"target":34962
		},
		{
			"buffer":0,
			"byteLength":6708,
			"byteOffset":1119368,
			"target":34962
		},
		{
			"buffer":0,
			"byteLength":4472,
			"byteOffset":1126076,
			"target":34962
		},
		{
			"buffer":0,
			"byteLength":16968,
			"byteOffset":1130548,
			"target":34962
		},
		{
			"buffer":0,
			"byteLength":16968,
			"byteOffset":1147516,
			"target":34962
		},
		{
			"buffer":0,
			"byteLength":11312,
			"byteOffset":1164484,
			"target":34962
		},
		{
			"buffer":0,
			"byteLength":4512,
			"byteOffset":1175796,
			"target":34963
		},
		{
			"buffer":0,
			"byteLength":3360,
			"byteOffset":1180308,
			"target":34962
		},
		{
			"buffer":0,
			"byteLength":3360,
			"byteOffset":1183668,
			"target":34962
		},
		{
			"buffer":0,
			"byteLength":2240,
			"byteOffset":1187028,
			"target":34962
		},
		{
			"buffer":0,
			"byteLength":864,
			"byteOffset":1189268,
			"target":34963
		},
		{
			"buffer":0,
			"byteLength":2376,
			"byteOffset":1190132,
			"target":34962
		},
		{
			"buffer":0,
			"byteLength":2376,
			"byteOffset":1192508,
			"target":34962
		},
		{
			"buffer":0,
			"byteLength":1584,
			"byteOffset":1194884,
			"target":34962
		},
		{
			"buffer":0,
			"byteLength":552,
			"byteOffset":1196468,
			"target":34963
		},
		{
			"buffer":0,
			"byteLength":2856,
			"byteOffset":1197020,
			"target":34962
		},
		{
			"buffer":0,
			"byteLength":2856,
			"byteOffset":1199876,
			"target":34962
		},
		{
			"buffer":0,
			"byteLength":1904,
			"byteOffset":1202732,
			"target":34962
		},
		{
			"buffer":0,
			"byteLength":1320,
			"byteOffset":1204636,
			"target":34963
		},
		{
			"buffer":0,
			"byteLength":3372,
			"byteOffset":1205956,
			"target":34962
		},
		{
			"buffer":0,
			"byteLength":3372,
			"byteOffset":1209328,
			"target":34962
		},
		{
			"buffer":0,
			"byteLength":2248,
			"byteOffset":1212700,
			"target":34962
		},
		{
			"buffer":0,
			"byteLength":1668,
			"byteOffset":1214948,
			"target":34963
		},
		{
			"buffer":0,
			"byteLength":3000,
			"byteOffset":1216616,
			"target":34962
		},
		{
			"buffer":0,
			"byteLength":3000,
			"byteOffset":1219616,
			"target":34962
		},
		{
			"buffer":0,
			"byteLength":2000,
			"byteOffset":1222616,
			"target":34962
		},
		{
			"buffer":0,
			"byteLength":840,
			"byteOffset":1224616,
			"target":34963
		},
		{
			"buffer":0,
			"byteLength":4056,
			"byteOffset":1225456,
			"target":34962
		},
		{
			"buffer":0,
			"byteLength":4056,
			"byteOffset":1229512,
			"target":34962
		},
		{
			"buffer":0,
			"byteLength":2704,
			"byteOffset":1233568,
			"target":34962
		},
		{
			"buffer":0,
			"byteLength":1572,
			"byteOffset":1236272,
			"target":34963
		},
		{
			"buffer":0,
			"byteLength":22188,
			"byteOffset":1237844,
			"target":34962
		},
		{
			"buffer":0,
			"byteLength":22188,
			"byteOffset":1260032,
			"target":34962
		},
		{
			"buffer":0,
			"byteLength":14792,
			"byteOffset":1282220,
			"target":34962
		},
		{
			"buffer":0,
			"byteLength":14004,
			"byteOffset":1297012,
			"target":34963
		},
		{
			"buffer":0,
			"byteLength":5124,
			"byteOffset":1311016,
			"target":34962
		},
		{
			"buffer":0,
			"byteLength":5124,
			"byteOffset":1316140,
			"target":34962
		},
		{
			"buffer":0,
			"byteLength":3416,
			"byteOffset":1321264,
			"target":34962
		},
		{
			"buffer":0,
			"byteLength":2706,
			"byteOffset":1324680,
			"target":34963
		},
		{
			"buffer":0,
			"byteLength":17148,
			"byteOffset":1327388,
			"target":34962
		},
		{
			"buffer":0,
			"byteLength":17148,
			"byteOffset":1344536,
			"target":34962
		},
		{
			"buffer":0,
			"byteLength":11432,
			"byteOffset":1361684,
			"target":34962
		},
		{
			"buffer":0,
			"byteLength":6792,
			"byteOffset":1373116,
			"target":34963
		},
		{
			"buffer":0,
			"byteLength":696,
			"byteOffset":1379908,
			"target":34962
		},
		{
			"buffer":0,
			"byteLength":696,
			"byteOffset":1380604,
			"target":34962
		},
		{
			"buffer":0,
			"byteLength":464,
			"byteOffset":1381300,
			"target":34962
		},
		{
			"buffer":0,
			"byteLength":204,
			"byteOffset":1381764,
			"target":34963
		},
		{
			"buffer":0,
			"byteLength":23604,
			"byteOffset":1381968,
			"target":34962
		},
		{
			"buffer":0,
			"byteLength":23604,
			"byteOffset":1405572,
			"target":34962
		},
		{
			"buffer":0,
			"byteLength":15736,
			"byteOffset":1429176,
			"target":34962
		},
		{
			"buffer":0,
			"byteLength":14982,
			"byteOffset":1444912,
			"target":34963
		},
		{
			"buffer":0,
			"byteLength":49212,
			"byteOffset":1459896,
			"target":34962
		},
		{
			"buffer":0,
			"byteLength":49212,
			"byteOffset":1509108,
			"target":34962
		},
		{
			"buffer":0,
			"byteLength":32808,
			"byteOffset":1558320,
			"target":34962
		},
		{
			"buffer":0,
			"byteLength":13392,
			"byteOffset":1591128,
			"target":34963
		},
		{
			"buffer":0,
			"byteLength":43548,
			"byteOffset":1604520,
			"target":34962
		},
		{
			"buffer":0,
			"byteLength":43548,
			"byteOffset":1648068,
			"target":34962
		},
		{
			"buffer":0,
			"byteLength":29032,
			"byteOffset":1691616,
			"target":34962
		},
		{
			"buffer":0,
			"byteLength":16788,
			"byteOffset":1720648,
			"target":34963
		},
		{
			"buffer":0,
			"byteLength":360,
			"byteOffset":1737436,
			"target":34962
		},
		{
			"buffer":0,
			"byteLength":360,
			"byteOffset":1737796,
			"target":34962
		},
		{
			"buffer":0,
			"byteLength":240,
			"byteOffset":1738156,
			"target":34962
		},
		{
			"buffer":0,
			"byteLength":84,
			"byteOffset":1738396,
			"target":34963
		},
		{
			"buffer":0,
			"byteLength":864,
			"byteOffset":1738480,
			"target":34962
		},
		{
			"buffer":0,
			"byteLength":864,
			"byteOffset":1739344,
			"target":34962
		},
		{
			"buffer":0,
			"byteLength":576,
			"byteOffset":1740208,
			"target":34962
		},
		{
			"buffer":0,
			"byteLength":240,
			"byteOffset":1740784,
			"target":34963
		},
		{
			"buffer":0,
			"byteLength":128220,
			"byteOffset":1741024,
			"target":34962
		},
		{
			"buffer":0,
			"byteLength":128220,
			"byteOffset":1869244,
			"target":34962
		},
		{
			"buffer":0,
			"byteLength":85480,
			"byteOffset":1997464,
			"target":34962
		},
		{
			"buffer":0,
			"byteLength":36210,
			"byteOffset":2082944,
			"target":34963
		},
		{
			"buffer":0,
			"byteLength":5400,
			"byteOffset":2119156,
			"target":34962
		},
		{
			"buffer":0,
			"byteLength":5400,
			"byteOffset":2124556,
			"target":34962
		},
		{
			"buffer":0,
			"byteLength":3600,
			"byteOffset":2129956,
			"target":34962
		},
		{
			"buffer":0,
			"byteLength":1104,
			"byteOffset":2133556,
			"target":34963
		},
		{
			"buffer":0,
			"byteLength":696,
			"byteOffset":2134660,
			"target":34962
		},
		{
			"buffer":0,
			"byteLength":696,
			"byteOffset":2135356,
			"target":34962
		},
		{
			"buffer":0,
			"byteLength":464,
			"byteOffset":2136052,
			"target":34962
		},
		{
			"buffer":0,
			"byteLength":144,
			"byteOffset":2136516,
			"target":34963
		},
		{
			"buffer":0,
			"byteLength":1536,
			"byteOffset":2136660,
			"target":34962
		},
		{
			"buffer":0,
			"byteLength":1536,
			"byteOffset":2138196,
			"target":34962
		},
		{
			"buffer":0,
			"byteLength":1024,
			"byteOffset":2139732,
			"target":34962
		},
		{
			"buffer":0,
			"byteLength":384,
			"byteOffset":2140756,
			"target":34963
		},
		{
			"buffer":0,
			"byteLength":9552,
			"byteOffset":2141140,
			"target":34962
		},
		{
			"buffer":0,
			"byteLength":9552,
			"byteOffset":2150692,
			"target":34962
		},
		{
			"buffer":0,
			"byteLength":6368,
			"byteOffset":2160244,
			"target":34962
		},
		{
			"buffer":0,
			"byteLength":3072,
			"byteOffset":2166612,
			"target":34963
		},
		{
			"buffer":0,
			"byteLength":21624,
			"byteOffset":2169684,
			"target":34962
		},
		{
			"buffer":0,
			"byteLength":21624,
			"byteOffset":2191308,
			"target":34962
		},
		{
			"buffer":0,
			"byteLength":14416,
			"byteOffset":2212932,
			"target":34962
		},
		{
			"buffer":0,
			"byteLength":5172,
			"byteOffset":2227348,
			"target":34963
		},
		{
			"buffer":0,
			"byteLength":3264,
			"byteOffset":2232520,
			"target":34962
		},
		{
			"buffer":0,
			"byteLength":3264,
			"byteOffset":2235784,
			"target":34962
		},
		{
			"buffer":0,
			"byteLength":2176,
			"byteOffset":2239048,
			"target":34962
		},
		{
			"buffer":0,
			"byteLength":1536,
			"byteOffset":2241224,
			"target":34963
		},
		{
			"buffer":0,
			"byteLength":8412,
			"byteOffset":2242760,
			"target":34962
		},
		{
			"buffer":0,
			"byteLength":8412,
			"byteOffset":2251172,
			"target":34962
		},
		{
			"buffer":0,
			"byteLength":5608,
			"byteOffset":2259584,
			"target":34962
		},
		{
			"buffer":0,
			"byteLength":5916,
			"byteOffset":2265192,
			"target":34963
		}
	],
	"samplers":[
		{
			"magFilter":9729,
			"minFilter":9987
		}
	],
	"buffers":[
		{
			"byteLength":2271108,
			"uri":"f35i.bin"
		}
	]
}
